<?xml version="1.0" encoding="UTF-8"?>
<svg xmlns="http://www.w3.org/2000/svg" xmlns:xlink="http://www.w3.org/1999/xlink" width="60px" height="60px" viewBox="0 0 60 60" version="1.1">
<g id="surface1">
<path style=" stroke:none;fill-rule:nonzero;fill:rgb(0%,0%,0%);fill-opacity:1;" d="M 15.65625 3.761719 C 11.964844 4.148438 8.519531 5.777344 5.695312 8.449219 C 1.148438 12.75 -0.738281 18.550781 0.480469 24.433594 C 0.714844 25.558594 1.324219 27.421875 1.546875 27.65625 C 1.863281 27.996094 2.296875 28.066406 2.648438 27.84375 C 3.210938 27.46875 3.246094 27.1875 2.824219 25.921875 C 2.214844 24.035156 2.074219 23.109375 2.0625 20.976562 C 2.050781 18.832031 2.214844 17.835938 2.835938 16.054688 C 5.203125 9.363281 12.058594 4.910156 18.878906 5.625 C 22.054688 5.964844 24.644531 7.007812 27.539062 9.140625 C 28.875 10.125 29.285156 10.3125 30.105469 10.3125 C 31.007812 10.3125 31.441406 10.113281 32.8125 9.09375 C 36.984375 5.976562 41.90625 4.851562 46.371094 5.976562 C 51.421875 7.265625 55.570312 11.0625 57.339844 16.007812 C 57.972656 17.789062 58.183594 19.101562 58.171875 21.328125 C 58.171875 22.792969 58.113281 23.625 57.972656 24.234375 C 57.855469 24.703125 57.773438 25.242188 57.773438 25.417969 C 57.773438 25.839844 58.21875 26.25 58.675781 26.25 C 59.308594 26.25 59.519531 25.957031 59.777344 24.667969 C 59.988281 23.625 60.011719 23.191406 59.964844 20.800781 C 59.917969 18.375 59.882812 17.988281 59.613281 16.980469 C 58.417969 12.527344 55.898438 9 52.136719 6.492188 C 49.300781 4.59375 46.359375 3.703125 42.949219 3.714844 C 38.742188 3.714844 35.050781 5.027344 31.3125 7.863281 C 30.304688 8.625 29.964844 8.625 29.074219 7.921875 C 25.066406 4.78125 20.214844 3.28125 15.65625 3.761719 Z M 15.65625 3.761719 "/>
<path style=" stroke:none;fill-rule:nonzero;fill:rgb(0%,0%,0%);fill-opacity:1;" d="M 45.820312 9.433594 C 45.339844 9.949219 45.550781 10.757812 46.21875 10.96875 C 46.347656 11.015625 46.839844 11.226562 47.308594 11.4375 C 47.777344 11.660156 48.234375 11.835938 48.339844 11.835938 C 48.621094 11.835938 49.21875 11.191406 49.21875 10.898438 C 49.21875 10.417969 48.949219 10.160156 47.871094 9.65625 C 46.617188 9.058594 46.207031 9.011719 45.820312 9.433594 Z M 45.820312 9.433594 "/>
<path style=" stroke:none;fill-rule:nonzero;fill:rgb(0%,0%,0%);fill-opacity:1;" d="M 50.683594 12.199219 C 50.003906 12.585938 49.980469 13.183594 50.601562 13.933594 C 51.667969 15.210938 52.441406 16.640625 52.933594 18.246094 C 53.226562 19.195312 53.25 19.429688 53.25 21.328125 C 53.25 23.203125 53.226562 23.460938 52.945312 24.363281 C 52.535156 25.699219 52.722656 26.25 53.613281 26.25 C 54.175781 26.25 54.351562 26.050781 54.65625 25.101562 C 55.101562 23.671875 55.230469 22.570312 55.160156 20.777344 C 55.089844 18.796875 54.738281 17.367188 53.917969 15.644531 C 53.402344 14.554688 52.253906 12.867188 51.726562 12.398438 C 51.421875 12.128906 50.964844 12.046875 50.683594 12.199219 Z M 50.683594 12.199219 "/>
<path style=" stroke:none;fill-rule:nonzero;fill:rgb(0%,0%,0%);fill-opacity:1;" d="M 32.871094 19.546875 C 32.683594 19.675781 32.449219 19.851562 32.367188 19.945312 C 32.285156 20.050781 31.042969 24.515625 29.601562 29.894531 L 26.988281 39.65625 L 26.800781 39.023438 C 26.707031 38.671875 25.558594 34.394531 24.257812 29.53125 C 22.957031 24.667969 21.820312 20.566406 21.726562 20.414062 C 21.480469 20.039062 20.871094 19.6875 20.449219 19.6875 C 20.027344 19.6875 19.417969 20.039062 19.171875 20.414062 C 19.042969 20.625 16.640625 29.308594 16.640625 29.578125 C 16.640625 29.613281 13.054688 29.648438 8.671875 29.648438 L 0.691406 29.648438 L 0.410156 29.941406 C 0.0117188 30.328125 0.0351562 30.761719 0.457031 31.183594 L 0.808594 31.535156 L 17.402344 31.464844 L 17.765625 31.207031 C 17.964844 31.066406 18.1875 30.796875 18.269531 30.621094 C 18.339844 30.433594 18.84375 28.605469 19.40625 26.542969 C 19.957031 24.480469 20.425781 22.78125 20.449219 22.757812 C 20.496094 22.699219 20.34375 22.148438 23.097656 32.402344 C 24.457031 37.488281 25.617188 41.753906 25.6875 41.871094 C 25.875 42.234375 26.507812 42.539062 27.058594 42.539062 C 27.492188 42.539062 27.632812 42.480469 27.996094 42.09375 C 28.417969 41.660156 28.441406 41.578125 30.878906 32.425781 C 33.175781 23.8125 33.339844 23.226562 33.421875 23.753906 C 33.46875 24.058594 33.632812 26.15625 33.785156 28.394531 C 34.089844 32.929688 34.089844 32.882812 34.96875 33.328125 C 35.519531 33.597656 36.09375 33.503906 36.574219 33.070312 C 36.890625 32.777344 37.007812 32.414062 37.910156 28.945312 C 38.460938 26.847656 38.941406 25.03125 38.988281 24.902344 C 39.035156 24.75 39.269531 25.394531 39.65625 26.777344 C 39.996094 27.9375 40.324219 29.003906 40.40625 29.144531 C 40.488281 29.296875 40.722656 29.507812 40.933594 29.613281 C 41.285156 29.8125 41.941406 29.824219 50.402344 29.824219 C 59.191406 29.824219 59.519531 29.8125 59.753906 29.601562 C 59.929688 29.4375 60 29.238281 60 28.886719 C 60 27.949219 60.679688 28.007812 50.742188 27.984375 L 41.917969 27.949219 L 41.179688 25.3125 C 40.769531 23.871094 40.335938 22.546875 40.21875 22.382812 C 39.585938 21.527344 38.214844 21.609375 37.722656 22.535156 C 37.640625 22.664062 37.171875 24.339844 36.667969 26.238281 C 36.164062 28.148438 35.753906 29.660156 35.753906 29.601562 C 35.742188 29.542969 35.613281 27.621094 35.449219 25.324219 C 35.109375 20.496094 35.097656 20.355469 34.839844 19.957031 C 34.453125 19.371094 33.492188 19.171875 32.871094 19.546875 Z M 32.871094 19.546875 "/>
<path style=" stroke:none;fill-rule:nonzero;fill:rgb(0%,0%,0%);fill-opacity:1;" d="M 42.773438 43.300781 C 36.164062 49.910156 30.832031 55.160156 30.609375 55.265625 C 30.363281 55.371094 30.09375 55.417969 29.90625 55.371094 C 29.695312 55.324219 25.851562 51.5625 18.515625 44.226562 C 8.320312 34.054688 7.40625 33.164062 7.054688 33.164062 C 6.539062 33.164062 6.09375 33.609375 6.09375 34.125 C 6.09375 34.476562 6.972656 35.390625 17.132812 45.5625 C 29.285156 57.703125 28.757812 57.234375 30.164062 57.222656 C 30.703125 57.222656 31.042969 57.140625 31.464844 56.917969 C 31.910156 56.695312 34.886719 53.789062 43.851562 44.800781 C 50.34375 38.308594 55.699219 32.859375 55.769531 32.695312 C 55.898438 32.332031 55.675781 31.710938 55.371094 31.59375 C 54.703125 31.335938 55.066406 30.996094 42.773438 43.300781 Z M 42.773438 43.300781 "/>
</g>
</svg>
