<?xml version="1.0" encoding="UTF-8"?>
<svg xmlns="http://www.w3.org/2000/svg" xmlns:xlink="http://www.w3.org/1999/xlink" width="60px" height="60px" viewBox="0 0 60 60" version="1.1">
<g id="surface1">
<path style=" stroke:none;fill-rule:nonzero;fill:rgb(0%,0%,0%);fill-opacity:1;" d="M 14.050781 10.078125 C 10.066406 10.546875 6.46875 13.253906 4.921875 16.945312 C 4.464844 18.046875 3.234375 22.875 2.578125 26.144531 C 1.59375 31.101562 1.230469 34.617188 1.324219 38.296875 C 1.40625 41.390625 1.699219 43.078125 2.496094 44.964844 C 3.808594 48.058594 6.539062 49.957031 9.726562 49.96875 C 12.023438 49.980469 13.839844 49.160156 15.925781 47.167969 C 17.261719 45.878906 19.007812 43.511719 19.910156 41.742188 C 20.15625 41.25 20.167969 41.25 20.789062 41.25 C 22.675781 41.25 25.066406 40.371094 26.484375 39.164062 L 26.929688 38.789062 L 33.070312 38.789062 L 33.515625 39.175781 C 34.804688 40.277344 36.890625 41.085938 38.742188 41.214844 L 39.832031 41.285156 L 40.429688 42.351562 C 42.222656 45.503906 44.636719 48.082031 46.816406 49.195312 C 47.847656 49.710938 48.984375 49.96875 50.214844 49.96875 C 54.023438 49.933594 56.835938 47.601562 58.019531 43.476562 C 58.453125 41.976562 58.617188 40.734375 58.675781 38.296875 C 58.78125 34.605469 58.40625 31.089844 57.398438 26.074219 C 56.742188 22.78125 55.535156 18.046875 55.078125 16.957031 C 54.023438 14.4375 51.878906 12.210938 49.40625 11.0625 C 47.542969 10.207031 45.386719 9.855469 43.441406 10.078125 C 40.746094 10.394531 38.789062 11.414062 36.363281 13.734375 L 35.0625 15 L 24.9375 15 L 23.636719 13.734375 C 21.257812 11.449219 19.242188 10.394531 16.640625 10.078125 C 15.550781 9.949219 15.1875 9.949219 14.050781 10.078125 Z M 17.25 12.714844 C 18.84375 13.042969 20.601562 14.15625 22.207031 15.84375 C 22.792969 16.453125 23.367188 16.933594 23.730469 17.109375 L 24.316406 17.402344 L 35.683594 17.402344 L 36.246094 17.121094 C 36.585938 16.957031 37.300781 16.359375 38.003906 15.65625 C 40.289062 13.371094 42.046875 12.550781 44.660156 12.539062 C 47.988281 12.539062 50.941406 14.355469 52.511719 17.367188 C 53.53125 19.335938 55.476562 28.242188 56.039062 33.515625 C 56.226562 35.332031 56.226562 39.539062 56.027344 40.710938 C 55.417969 44.402344 54.09375 46.453125 51.820312 47.214844 C 49.863281 47.882812 47.730469 47.226562 45.796875 45.375 C 44.578125 44.214844 42.878906 41.789062 41.847656 39.761719 C 41.648438 39.363281 41.367188 38.964844 41.226562 38.882812 C 41.050781 38.789062 40.441406 38.730469 39.550781 38.71875 C 38.367188 38.707031 38.003906 38.660156 37.300781 38.414062 C 36.246094 38.039062 35.554688 37.640625 34.792969 36.960938 C 34.464844 36.667969 34.066406 36.375 33.902344 36.316406 C 33.515625 36.175781 26.472656 36.175781 26.085938 36.328125 C 25.921875 36.386719 25.558594 36.644531 25.277344 36.902344 C 23.917969 38.15625 22.511719 38.683594 20.449219 38.71875 C 19.558594 38.730469 18.949219 38.789062 18.773438 38.882812 C 18.632812 38.964844 18.351562 39.363281 18.152344 39.761719 C 17.542969 40.957031 16.558594 42.527344 15.691406 43.675781 C 13.3125 46.816406 10.675781 48.058594 8.179688 47.214844 C 3 45.480469 2.378906 36.609375 6.339844 20.917969 C 6.996094 18.316406 7.488281 17.132812 8.378906 15.949219 C 9.503906 14.472656 11.355469 13.265625 13.242188 12.773438 C 14.308594 12.503906 16.125 12.46875 17.25 12.714844 Z M 17.25 12.714844 "/>
<path style=" stroke:none;fill-rule:nonzero;fill:rgb(0%,0%,0%);fill-opacity:1;" d="M 13.863281 17.636719 C 13.300781 17.882812 13.125 18.328125 13.125 19.570312 L 13.125 20.625 L 12.070312 20.625 C 10.851562 20.625 10.417969 20.789062 10.125 21.339844 C 9.867188 21.84375 9.996094 22.40625 10.441406 22.78125 C 10.769531 23.0625 10.886719 23.085938 11.953125 23.085938 L 13.101562 23.085938 L 13.148438 24.304688 C 13.183594 25.40625 13.207031 25.558594 13.464844 25.828125 C 13.851562 26.238281 14.460938 26.34375 14.953125 26.074219 C 15.164062 25.957031 15.375 25.78125 15.421875 25.675781 C 15.480469 25.570312 15.550781 24.960938 15.585938 24.316406 L 15.644531 23.144531 L 16.816406 23.085938 C 18.164062 23.003906 18.339844 22.945312 18.574219 22.488281 C 18.867188 21.925781 18.796875 21.46875 18.351562 21.023438 L 17.953125 20.625 L 15.585938 20.625 L 15.585938 19.476562 C 15.585938 18.1875 15.46875 17.894531 14.8125 17.625 C 14.34375 17.425781 14.332031 17.425781 13.863281 17.636719 Z M 13.863281 17.636719 "/>
<path style=" stroke:none;fill-rule:nonzero;fill:rgb(0%,0%,0%);fill-opacity:1;" d="M 45.164062 17.625 C 44.097656 18.09375 44.179688 19.558594 45.28125 19.921875 C 46.03125 20.167969 46.875 19.535156 46.875 18.75 C 46.875 18.316406 46.523438 17.800781 46.113281 17.625 C 45.632812 17.425781 45.621094 17.425781 45.164062 17.625 Z M 45.164062 17.625 "/>
<path style=" stroke:none;fill-rule:nonzero;fill:rgb(0%,0%,0%);fill-opacity:1;" d="M 42.070312 20.707031 C 41.71875 20.835938 41.367188 21.257812 41.296875 21.65625 C 41.074219 22.816406 42.527344 23.578125 43.371094 22.746094 C 44.285156 21.820312 43.289062 20.261719 42.070312 20.707031 Z M 42.070312 20.707031 "/>
<path style=" stroke:none;fill-rule:nonzero;fill:rgb(0%,0%,0%);fill-opacity:1;" d="M 48.09375 20.847656 C 47.050781 21.480469 47.542969 23.085938 48.761719 23.085938 C 49.628906 23.085938 50.214844 22.207031 49.875 21.410156 C 49.699219 20.964844 49.183594 20.625 48.726562 20.625 C 48.574219 20.625 48.292969 20.730469 48.09375 20.847656 Z M 48.09375 20.847656 "/>
<path style=" stroke:none;fill-rule:nonzero;fill:rgb(0%,0%,0%);fill-opacity:1;" d="M 25.441406 24.09375 C 24.996094 24.46875 24.867188 25.03125 25.125 25.535156 C 25.40625 26.074219 25.851562 26.25 26.964844 26.25 C 27.890625 26.25 27.925781 26.238281 28.3125 25.851562 C 28.886719 25.277344 28.839844 24.515625 28.195312 24 C 28.007812 23.835938 27.714844 23.789062 26.871094 23.789062 C 25.886719 23.789062 25.769531 23.8125 25.441406 24.09375 Z M 25.441406 24.09375 "/>
<path style=" stroke:none;fill-rule:nonzero;fill:rgb(0%,0%,0%);fill-opacity:1;" d="M 31.839844 23.917969 C 31.558594 24.082031 31.289062 24.644531 31.289062 25.089844 C 31.289062 25.347656 31.40625 25.570312 31.6875 25.851562 C 32.074219 26.238281 32.109375 26.25 33.035156 26.25 C 34.148438 26.25 34.59375 26.074219 34.875 25.535156 C 35.132812 25.03125 35.003906 24.46875 34.558594 24.09375 C 34.230469 23.8125 34.113281 23.789062 33.128906 23.789062 C 32.53125 23.789062 31.957031 23.847656 31.839844 23.917969 Z M 31.839844 23.917969 "/>
<path style=" stroke:none;fill-rule:nonzero;fill:rgb(0%,0%,0%);fill-opacity:1;" d="M 44.753906 24.128906 C 44.179688 24.714844 44.332031 25.6875 45.058594 26.074219 C 45.796875 26.484375 46.699219 26.027344 46.839844 25.160156 C 47.015625 24.023438 45.574219 23.308594 44.753906 24.128906 Z M 44.753906 24.128906 "/>
<path style=" stroke:none;fill-rule:nonzero;fill:rgb(0%,0%,0%);fill-opacity:1;" d="M 19.453125 27.644531 C 18.316406 28.007812 17.261719 28.898438 16.722656 29.941406 C 16.382812 30.597656 16.347656 30.726562 16.347656 31.816406 C 16.347656 32.859375 16.382812 33.070312 16.6875 33.714844 C 17.097656 34.605469 17.90625 35.402344 18.84375 35.835938 C 19.417969 36.105469 19.664062 36.152344 20.625 36.152344 C 21.585938 36.152344 21.832031 36.105469 22.40625 35.835938 C 23.332031 35.402344 24.070312 34.6875 24.527344 33.761719 C 24.867188 33.058594 24.902344 32.894531 24.902344 31.875 C 24.902344 30.855469 24.867188 30.691406 24.527344 29.988281 C 24.070312 29.0625 23.332031 28.347656 22.40625 27.914062 C 21.878906 27.667969 21.539062 27.597656 20.742188 27.574219 C 20.191406 27.5625 19.617188 27.585938 19.453125 27.644531 Z M 21.363281 30.164062 C 22.570312 30.667969 22.863281 32.238281 21.925781 33.175781 C 21.164062 33.9375 20.085938 33.9375 19.324219 33.175781 C 17.871094 31.734375 19.476562 29.367188 21.363281 30.164062 Z M 21.363281 30.164062 "/>
<path style=" stroke:none;fill-rule:nonzero;fill:rgb(0%,0%,0%);fill-opacity:1;" d="M 38.203125 27.644531 C 37.066406 28.007812 36.011719 28.898438 35.472656 29.941406 C 35.132812 30.597656 35.097656 30.726562 35.097656 31.816406 C 35.097656 32.859375 35.132812 33.070312 35.4375 33.714844 C 35.847656 34.605469 36.65625 35.402344 37.59375 35.835938 C 38.167969 36.105469 38.414062 36.152344 39.375 36.152344 C 40.335938 36.152344 40.582031 36.105469 41.15625 35.835938 C 42.082031 35.402344 42.820312 34.6875 43.277344 33.761719 C 43.617188 33.058594 43.652344 32.894531 43.652344 31.875 C 43.652344 30.855469 43.617188 30.691406 43.277344 29.988281 C 42.820312 29.0625 42.082031 28.347656 41.15625 27.914062 C 40.628906 27.667969 40.289062 27.597656 39.492188 27.574219 C 38.941406 27.5625 38.367188 27.585938 38.203125 27.644531 Z M 40.113281 30.164062 C 41.320312 30.667969 41.613281 32.238281 40.675781 33.175781 C 39.914062 33.9375 38.835938 33.9375 38.074219 33.175781 C 36.621094 31.734375 38.226562 29.367188 40.113281 30.164062 Z M 40.113281 30.164062 "/>
</g>
</svg>
