<?xml version="1.0" encoding="UTF-8"?>
<svg xmlns="http://www.w3.org/2000/svg" xmlns:xlink="http://www.w3.org/1999/xlink" width="60px" height="60px" viewBox="0 0 60 60" version="1.1">
<g id="surface1">
<path style=" stroke:none;fill-rule:nonzero;fill:rgb(0%,0%,0%);fill-opacity:1;" d="M 4.605469 0.210938 C 3.363281 0.644531 2.519531 1.464844 2.085938 2.671875 C 1.910156 3.152344 1.886719 3.785156 1.875 7.863281 L 1.875 12.503906 L 2.144531 12.75 C 2.484375 13.066406 2.929688 13.078125 3.292969 12.785156 L 3.574219 12.5625 L 3.632812 7.886719 L 3.691406 3.199219 L 4.007812 2.730469 C 4.195312 2.449219 4.523438 2.15625 4.828125 2.003906 L 5.34375 1.757812 L 22.535156 1.757812 C 37.792969 1.757812 39.785156 1.78125 40.171875 1.933594 C 40.746094 2.179688 41.121094 2.542969 41.378906 3.105469 C 41.589844 3.550781 41.601562 4.066406 41.601562 12.257812 L 41.601562 20.941406 L 40.875 21.023438 C 40.464844 21.070312 40.019531 21.140625 39.878906 21.175781 L 39.609375 21.234375 L 39.585938 13.148438 L 39.550781 5.0625 L 39.1875 4.605469 C 38.4375 3.679688 39.902344 3.75 22.570312 3.75 L 7.125 3.75 L 6.65625 4.007812 C 6.375 4.171875 6.058594 4.488281 5.882812 4.804688 L 5.566406 5.332031 L 5.566406 28.066406 C 5.566406 40.570312 5.601562 50.941406 5.648438 51.117188 C 5.789062 51.585938 6.316406 52.160156 6.855469 52.394531 C 7.277344 52.59375 7.675781 52.617188 10.617188 52.617188 C 13.78125 52.617188 13.921875 52.605469 14.226562 52.371094 C 14.613281 52.066406 14.648438 51.445312 14.296875 51.09375 C 14.074219 50.871094 13.910156 50.859375 10.78125 50.859375 L 7.5 50.859375 L 7.382812 50.554688 C 7.21875 50.132812 7.21875 6.035156 7.382812 5.730469 C 7.5 5.519531 7.675781 5.507812 11.601562 5.507812 L 15.703125 5.507812 L 15.703125 6.878906 C 15.714844 8.753906 15.972656 9.339844 17.027344 9.785156 C 17.390625 9.9375 18.234375 9.960938 22.605469 9.960938 C 25.957031 9.960938 27.878906 9.914062 28.089844 9.832031 C 28.265625 9.773438 28.570312 9.574219 28.746094 9.398438 C 29.34375 8.835938 29.449219 8.496094 29.507812 6.9375 L 29.554688 5.507812 L 33.679688 5.53125 L 37.792969 5.566406 L 37.828125 13.675781 C 37.851562 20.34375 37.828125 21.796875 37.699219 21.796875 C 37.40625 21.796875 35.484375 22.851562 34.675781 23.4375 C 34.242188 23.765625 33.457031 24.480469 32.941406 25.019531 L 32.003906 26.015625 L 26.132812 26.015625 C 22.21875 26.015625 20.179688 26.0625 20.027344 26.144531 C 19.464844 26.4375 19.511719 27.375 20.109375 27.644531 C 20.308594 27.738281 22.007812 27.773438 25.664062 27.773438 L 30.925781 27.773438 L 30.574219 28.535156 C 30.023438 29.753906 29.648438 31.230469 29.507812 32.777344 L 29.367188 34.21875 L 24.808594 34.21875 C 21.832031 34.21875 20.179688 34.265625 20.027344 34.347656 C 19.464844 34.640625 19.511719 35.578125 20.109375 35.847656 C 20.308594 35.929688 21.832031 35.976562 25.019531 35.976562 L 29.648438 35.976562 L 29.71875 36.292969 C 29.753906 36.480469 29.894531 36.996094 30.023438 37.464844 L 30.269531 38.308594 L 29.894531 38.765625 C 29.390625 39.410156 28.324219 41.226562 28.078125 41.882812 L 27.867188 42.421875 L 24.023438 42.421875 C 20.53125 42.421875 20.15625 42.445312 19.945312 42.621094 C 19.804688 42.738281 19.664062 42.972656 19.617188 43.148438 C 19.558594 43.40625 19.617188 43.535156 19.898438 43.828125 L 20.25 44.179688 L 27.269531 44.179688 L 27.046875 45.257812 C 26.824219 46.417969 26.742188 48.984375 26.894531 50.191406 L 26.976562 50.859375 L 17.214844 50.859375 L 16.933594 51.152344 C 16.769531 51.304688 16.640625 51.515625 16.640625 51.609375 C 16.640625 51.9375 16.898438 52.359375 17.191406 52.488281 C 17.378906 52.570312 19.042969 52.617188 22.429688 52.617188 L 27.386719 52.617188 L 27.703125 53.484375 C 27.867188 53.964844 28.007812 54.410156 28.007812 54.480469 C 28.007812 54.574219 24.9375 54.609375 16.617188 54.585938 C 5.460938 54.550781 5.203125 54.550781 4.816406 54.316406 C 4.59375 54.1875 4.253906 53.882812 4.054688 53.636719 L 3.691406 53.179688 L 3.574219 15.5625 L 3.292969 15.339844 C 2.917969 15.035156 2.4375 15.058594 2.132812 15.386719 L 1.875 15.65625 L 1.875 53.074219 L 2.132812 53.753906 C 2.460938 54.65625 3.304688 55.535156 4.253906 55.96875 L 4.980469 56.308594 L 17.003906 56.34375 L 29.039062 56.378906 L 29.660156 57.222656 C 30.679688 58.628906 31.429688 59.402344 32.039062 59.707031 L 32.625 60 L 42.46875 60 C 53.742188 60 52.746094 60.09375 53.929688 58.875 C 55.734375 57 57.152344 54.304688 57.785156 51.5625 C 58.289062 49.417969 58.183594 45.890625 57.574219 44.039062 C 57.316406 43.289062 56.917969 43.019531 56.367188 43.242188 C 55.816406 43.476562 55.734375 43.863281 56.015625 45 C 56.332031 46.277344 56.449219 48.703125 56.261719 50.050781 C 55.863281 52.863281 54.65625 55.453125 52.792969 57.515625 L 52.125 58.242188 L 32.835938 58.242188 L 32.132812 57.480469 C 29.824219 55.019531 28.582031 51.773438 28.570312 48.210938 C 28.570312 46.488281 28.769531 45.199219 29.273438 43.710938 C 30.890625 38.941406 35.097656 35.320312 40.078125 34.441406 C 42.058594 34.089844 44.824219 34.300781 46.792969 34.945312 C 49.476562 35.824219 52.160156 37.78125 53.71875 40.019531 C 54.574219 41.238281 54.714844 41.367188 55.148438 41.367188 C 55.582031 41.367188 56.015625 40.933594 56.015625 40.5 C 56.015625 40.253906 55.265625 39.058594 54.644531 38.332031 L 54.304688 37.945312 L 54.597656 36.867188 C 54.855469 35.929688 54.890625 35.554688 54.890625 33.75 C 54.902344 31.863281 54.878906 31.605469 54.574219 30.527344 C 53.554688 26.8125 51.128906 23.871094 47.730469 22.242188 C 46.628906 21.714844 44.625 21.09375 44.003906 21.09375 C 43.3125 21.09375 43.359375 21.75 43.359375 12.246094 C 43.359375 3.84375 43.347656 3.515625 43.125 2.777344 C 42.820312 1.792969 42 0.855469 41.039062 0.386719 L 40.371094 0.0585938 L 22.792969 0.0351562 C 6.128906 0.0117188 5.179688 0.0117188 4.605469 0.210938 Z M 27.773438 6.632812 C 27.773438 7.242188 27.714844 7.851562 27.65625 7.980469 C 27.539062 8.191406 27.351562 8.203125 22.640625 8.203125 C 18.984375 8.203125 17.707031 8.167969 17.601562 8.0625 C 17.507812 7.96875 17.460938 7.5 17.460938 6.714844 L 17.460938 5.507812 L 27.773438 5.507812 Z M 43.945312 22.851562 C 47.402344 23.402344 50.519531 25.710938 52.089844 28.886719 C 52.804688 30.339844 53.097656 31.511719 53.167969 33.234375 C 53.226562 34.488281 53.085938 36.035156 52.898438 36.351562 C 52.863281 36.398438 52.570312 36.210938 52.230469 35.941406 C 51.890625 35.671875 51.339844 35.261719 51 35.050781 L 50.390625 34.652344 L 50.390625 33.703125 C 50.390625 32.414062 50.132812 31.324219 49.582031 30.1875 C 48.703125 28.40625 47.519531 27.222656 45.761719 26.367188 C 43.417969 25.242188 40.945312 25.265625 38.566406 26.4375 C 37.675781 26.882812 37.277344 27.164062 36.503906 27.9375 C 34.851562 29.578125 34.089844 31.347656 34.054688 33.644531 L 34.042969 34.886719 L 33.222656 35.507812 C 32.765625 35.835938 32.238281 36.28125 32.027344 36.46875 L 31.652344 36.832031 L 31.535156 36.375 C 31.324219 35.566406 31.160156 33.714844 31.230469 32.929688 C 31.664062 28.546875 34.265625 25.054688 38.34375 23.425781 C 39.855469 22.816406 42.210938 22.582031 43.945312 22.851562 Z M 41.601562 29.882812 C 41.601562 31.851562 41.566406 32.484375 41.460938 32.519531 C 41.378906 32.542969 40.921875 32.589844 40.464844 32.636719 L 39.609375 32.707031 L 39.609375 27.808594 L 40.347656 27.597656 C 40.746094 27.492188 41.132812 27.375 41.191406 27.363281 C 41.601562 27.234375 41.601562 27.269531 41.601562 29.882812 Z M 45.058594 27.996094 C 47.027344 28.96875 48.398438 30.914062 48.597656 33.011719 L 48.667969 33.75 L 47.917969 33.46875 C 46.863281 33.070312 45.328125 32.707031 44.296875 32.601562 L 43.417969 32.519531 L 43.382812 29.953125 L 43.359375 27.386719 L 43.734375 27.46875 C 43.945312 27.503906 44.542969 27.75 45.058594 27.996094 Z M 37.828125 32.121094 L 37.792969 33.1875 L 36.867188 33.527344 C 36.351562 33.714844 35.882812 33.867188 35.824219 33.867188 C 35.683594 33.867188 35.847656 32.660156 36.105469 31.816406 C 36.339844 31.042969 36.984375 29.894531 37.476562 29.378906 L 37.792969 29.050781 L 37.828125 30.046875 C 37.839844 30.597656 37.839844 31.523438 37.828125 32.121094 Z M 37.828125 32.121094 "/>
<path style=" stroke:none;fill-rule:nonzero;fill:rgb(0%,0%,0%);fill-opacity:1;" d="M 15.246094 16.230469 L 13.992188 17.460938 L 13.417969 16.875 C 12.960938 16.40625 12.761719 16.289062 12.457031 16.289062 C 11.964844 16.289062 11.601562 16.640625 11.601562 17.132812 C 11.601562 17.449219 11.765625 17.671875 12.632812 18.539062 C 13.453125 19.359375 13.734375 19.570312 14.003906 19.570312 C 14.273438 19.570312 14.636719 19.265625 16.019531 17.90625 C 17.496094 16.429688 17.695312 16.195312 17.695312 15.855469 C 17.695312 15.363281 17.34375 15 16.863281 15 C 16.546875 15 16.289062 15.1875 15.246094 16.230469 Z M 15.246094 16.230469 "/>
<path style=" stroke:none;fill-rule:nonzero;fill:rgb(0%,0%,0%);fill-opacity:1;" d="M 20.0625 17.894531 C 19.980469 17.929688 19.839844 18.105469 19.734375 18.304688 C 19.582031 18.597656 19.582031 18.714844 19.699219 18.996094 C 19.769531 19.195312 19.933594 19.394531 20.050781 19.453125 C 20.179688 19.523438 22.816406 19.570312 26.753906 19.570312 L 33.246094 19.570312 L 33.492188 19.300781 C 33.832031 18.9375 33.832031 18.363281 33.492188 18.046875 C 33.246094 17.8125 33.128906 17.8125 26.730469 17.824219 C 23.144531 17.824219 20.144531 17.859375 20.0625 17.894531 Z M 20.0625 17.894531 "/>
<path style=" stroke:none;fill-rule:nonzero;fill:rgb(0%,0%,0%);fill-opacity:1;" d="M 12.714844 23.355469 C 12.398438 23.671875 12.316406 23.871094 12.246094 24.421875 C 12.117188 25.382812 12.234375 26.648438 12.46875 27.011719 C 12.867188 27.621094 13.300781 27.773438 14.660156 27.773438 C 15.761719 27.773438 15.949219 27.738281 16.300781 27.503906 C 16.921875 27.09375 17.109375 26.601562 17.109375 25.335938 C 17.109375 24.117188 16.957031 23.613281 16.464844 23.226562 C 16.171875 22.992188 16.007812 22.96875 14.625 22.96875 L 13.101562 22.96875 Z M 15.351562 25.371094 L 15.351562 26.027344 L 14.683594 25.992188 L 14.003906 25.957031 L 13.96875 25.335938 L 13.933594 24.726562 L 15.351562 24.726562 Z M 15.351562 25.371094 "/>
<path style=" stroke:none;fill-rule:nonzero;fill:rgb(0%,0%,0%);fill-opacity:1;" d="M 13.359375 31.171875 C 12.445312 31.394531 12.082031 32.320312 12.210938 34.125 C 12.316406 35.566406 12.867188 35.976562 14.648438 35.976562 C 15.890625 35.976562 16.394531 35.800781 16.804688 35.238281 C 17.15625 34.757812 17.226562 32.601562 16.910156 32.003906 C 16.535156 31.289062 16.207031 31.136719 14.917969 31.101562 C 14.285156 31.078125 13.582031 31.113281 13.359375 31.171875 Z M 15.328125 33.550781 L 15.363281 34.230469 L 14.003906 34.160156 L 13.96875 33.644531 C 13.910156 32.859375 13.96875 32.800781 14.671875 32.835938 L 15.292969 32.871094 Z M 15.328125 33.550781 "/>
<path style=" stroke:none;fill-rule:nonzero;fill:rgb(0%,0%,0%);fill-opacity:1;" d="M 40.980469 37.148438 C 37.171875 37.792969 34.089844 40.523438 33.035156 44.203125 C 32.695312 45.386719 32.613281 47.355469 32.847656 48.585938 C 33.597656 52.570312 36.644531 55.617188 40.664062 56.4375 C 41.835938 56.671875 43.804688 56.613281 44.941406 56.296875 C 47.671875 55.558594 50.144531 53.484375 51.328125 50.941406 C 53.015625 47.34375 52.300781 43.03125 49.535156 40.113281 C 47.34375 37.804688 43.992188 36.644531 40.980469 37.148438 Z M 44.039062 38.976562 C 44.554688 39.082031 45.410156 39.386719 46.042969 39.691406 C 46.957031 40.125 47.320312 40.382812 48.117188 41.179688 C 48.914062 41.988281 49.160156 42.328125 49.605469 43.253906 C 49.898438 43.863281 50.191406 44.613281 50.261719 44.917969 C 51.222656 48.949219 48.902344 53.121094 44.988281 54.421875 C 41.847656 55.464844 38.355469 54.457031 36.257812 51.902344 C 34.699219 49.992188 34.089844 47.34375 34.675781 45 C 35.0625 43.429688 35.636719 42.410156 36.796875 41.238281 C 37.628906 40.394531 37.96875 40.136719 38.90625 39.679688 C 40.640625 38.835938 42.246094 38.613281 44.039062 38.976562 Z M 44.039062 38.976562 "/>
<path style=" stroke:none;fill-rule:nonzero;fill:rgb(0%,0%,0%);fill-opacity:1;" d="M 37.910156 43.417969 L 37.617188 43.699219 L 37.617188 48.878906 L 37.910156 49.160156 C 38.0625 49.324219 38.332031 49.453125 38.496094 49.453125 C 38.941406 49.453125 39.375 48.960938 39.375 48.457031 C 39.375 48.234375 39.398438 48.046875 39.433594 48.046875 C 39.457031 48.046875 39.890625 48.339844 40.382812 48.691406 C 40.945312 49.089844 41.402344 49.335938 41.601562 49.335938 C 42.058594 49.335938 42.445312 48.867188 42.398438 48.386719 C 42.363281 48.035156 42.222656 47.882812 41.332031 47.214844 C 40.757812 46.78125 40.242188 46.382812 40.171875 46.3125 C 40.101562 46.242188 40.359375 45.984375 40.921875 45.585938 C 42.164062 44.695312 42.421875 44.425781 42.421875 44.039062 C 42.421875 43.628906 41.953125 43.125 41.566406 43.125 C 41.414062 43.125 40.863281 43.441406 40.335938 43.828125 L 39.375 44.53125 L 39.375 44.109375 C 39.375 43.617188 38.941406 43.125 38.496094 43.125 C 38.332031 43.125 38.0625 43.253906 37.910156 43.417969 Z M 37.910156 43.417969 "/>
<path style=" stroke:none;fill-rule:nonzero;fill:rgb(0%,0%,0%);fill-opacity:1;" d="M 43.816406 44.964844 C 43.265625 45.304688 43.125 45.691406 43.125 46.898438 C 43.125 48.539062 43.476562 48.996094 44.824219 49.078125 C 45.574219 49.125 45.585938 49.136719 45.585938 49.464844 L 45.585938 49.804688 L 44.613281 49.804688 C 43.746094 49.804688 43.605469 49.839844 43.382812 50.074219 C 43.019531 50.460938 43.042969 51.011719 43.429688 51.316406 C 43.699219 51.527344 43.910156 51.5625 44.90625 51.5625 C 46.347656 51.5625 46.757812 51.398438 47.109375 50.695312 C 47.320312 50.25 47.34375 49.980469 47.332031 48.152344 C 47.332031 45.832031 47.238281 45.433594 46.652344 45.035156 C 46.3125 44.800781 46.113281 44.765625 45.1875 44.765625 C 44.414062 44.765625 44.039062 44.824219 43.816406 44.964844 Z M 45.585938 46.933594 C 45.585938 47.308594 45.5625 47.34375 45.234375 47.34375 C 44.90625 47.34375 44.882812 47.308594 44.882812 46.933594 C 44.882812 46.558594 44.90625 46.523438 45.234375 46.523438 C 45.5625 46.523438 45.585938 46.558594 45.585938 46.933594 Z M 45.585938 46.933594 "/>
<path style=" stroke:none;fill-rule:nonzero;fill:rgb(0%,0%,0%);fill-opacity:1;" d="M 13.277344 39.375 C 12.421875 39.644531 12.105469 40.5 12.222656 42.210938 C 12.328125 43.839844 12.691406 44.121094 14.660156 44.121094 C 16.207031 44.121094 16.511719 44.003906 16.898438 43.230469 C 17.191406 42.667969 17.191406 40.769531 16.898438 40.207031 C 16.535156 39.480469 16.195312 39.328125 14.847656 39.292969 C 14.191406 39.28125 13.488281 39.316406 13.277344 39.375 Z M 15.292969 41.71875 L 15.292969 42.363281 L 14.003906 42.363281 L 13.96875 41.847656 C 13.910156 41.0625 13.96875 41.003906 14.671875 41.039062 L 15.292969 41.074219 Z M 15.292969 41.71875 "/>
</g>
</svg>
