<?xml version="1.0" encoding="UTF-8"?>
<svg xmlns="http://www.w3.org/2000/svg" xmlns:xlink="http://www.w3.org/1999/xlink" width="60px" height="60px" viewBox="0 0 60 60" version="1.1">
<g id="surface1">
<path style=" stroke:none;fill-rule:nonzero;fill:rgb(0%,0%,0%);fill-opacity:1;" d="M 11.308594 8.542969 C 9.808594 8.929688 8.683594 10.183594 8.484375 11.695312 L 8.414062 12.292969 L 7.839844 12.222656 C 6.9375 12.117188 6.246094 12.375 5.566406 13.054688 C 4.746094 13.886719 4.6875 14.144531 4.6875 17.144531 L 4.6875 19.664062 L 4.136719 19.746094 C 2.929688 19.921875 1.839844 20.730469 1.289062 21.855469 C 1.066406 22.335938 1.007812 22.628906 1.007812 23.4375 C 0.996094 24.351562 1.03125 24.492188 1.394531 25.171875 C 1.617188 25.582031 1.957031 26.039062 2.144531 26.203125 C 2.671875 26.648438 3.515625 27.035156 4.136719 27.128906 L 4.6875 27.210938 L 4.6875 29.730469 C 4.6875 32.730469 4.746094 32.988281 5.566406 33.820312 C 6.246094 34.5 6.9375 34.757812 7.839844 34.652344 L 8.414062 34.582031 L 8.484375 35.179688 C 8.578125 35.835938 8.964844 36.679688 9.421875 37.230469 C 9.585938 37.417969 10.042969 37.757812 10.453125 37.980469 C 11.132812 38.34375 11.273438 38.378906 12.1875 38.378906 C 13.101562 38.378906 13.242188 38.34375 13.921875 37.980469 C 14.742188 37.535156 15.09375 37.171875 15.5625 36.28125 L 15.878906 35.683594 L 15.914062 32.367188 L 15.949219 29.0625 L 17.765625 29.0625 L 17.894531 30.09375 C 18.210938 32.589844 19.746094 34.96875 21.867188 36.234375 L 22.5 36.621094 L 22.5 50.625 L 24.375 50.625 L 24.375 43.933594 C 24.375 38.003906 24.398438 37.253906 24.550781 37.3125 C 24.644531 37.347656 25.066406 37.40625 25.488281 37.453125 L 26.25 37.535156 L 26.25 35.671875 L 25.300781 35.53125 C 22.605469 35.144531 20.285156 32.929688 19.816406 30.304688 C 19.628906 29.308594 19.652344 23.191406 19.828125 22.570312 C 20.027344 21.890625 20.988281 20.953125 21.679688 20.753906 C 22.054688 20.660156 22.96875 20.625 24.75 20.648438 L 27.304688 20.683594 L 27.679688 21.070312 C 28.007812 21.398438 28.066406 21.527344 28.066406 22.03125 C 28.066406 22.535156 28.007812 22.664062 27.679688 22.992188 L 27.304688 23.378906 L 25.125 23.4375 C 22.289062 23.519531 22.5 23.285156 22.5 26.273438 C 22.5 28.429688 22.511719 28.5 22.769531 28.757812 C 22.96875 28.957031 23.226562 29.039062 23.835938 29.097656 C 24.832031 29.191406 25.910156 29.671875 26.648438 30.351562 C 27.304688 30.960938 27.960938 32.226562 28.066406 33.105469 L 28.148438 33.75 L 30.035156 33.75 L 29.953125 33.046875 C 29.824219 31.886719 29.074219 30.09375 28.523438 29.636719 C 28.429688 29.554688 28.289062 29.390625 28.230469 29.273438 C 28.125 29.074219 28.335938 29.0625 34.230469 29.0625 L 40.347656 29.0625 L 40.265625 29.777344 C 40.089844 31.253906 39.433594 32.613281 38.367188 33.679688 C 37.300781 34.746094 35.941406 35.402344 34.464844 35.578125 L 33.75 35.660156 L 33.75 37.535156 L 34.511719 37.453125 C 34.933594 37.40625 35.355469 37.347656 35.449219 37.3125 C 35.601562 37.253906 35.625 38.003906 35.625 43.933594 L 35.625 50.625 L 37.5 50.625 L 37.5 36.621094 L 38.132812 36.234375 C 40.253906 34.96875 41.753906 32.660156 42.09375 30.128906 L 42.234375 29.0625 L 44.050781 29.0625 L 44.085938 32.367188 L 44.121094 35.683594 L 44.4375 36.28125 C 44.90625 37.171875 45.257812 37.535156 46.078125 37.980469 C 46.757812 38.34375 46.898438 38.378906 47.8125 38.378906 C 48.726562 38.378906 48.867188 38.34375 49.546875 37.980469 C 49.957031 37.757812 50.414062 37.417969 50.578125 37.230469 C 51.035156 36.679688 51.421875 35.835938 51.515625 35.179688 L 51.585938 34.582031 L 52.160156 34.652344 C 53.0625 34.757812 53.753906 34.5 54.433594 33.820312 C 55.253906 32.988281 55.3125 32.730469 55.3125 29.730469 L 55.3125 27.210938 L 55.863281 27.128906 C 56.484375 27.035156 57.328125 26.648438 57.855469 26.203125 C 58.042969 26.039062 58.382812 25.582031 58.605469 25.171875 C 58.96875 24.492188 59.003906 24.351562 59.003906 23.4375 C 59.003906 22.523438 58.96875 22.382812 58.605469 21.703125 C 58.382812 21.292969 58.042969 20.835938 57.855469 20.671875 C 57.328125 20.226562 56.484375 19.839844 55.863281 19.746094 L 55.3125 19.664062 L 55.3125 17.144531 C 55.3125 14.144531 55.253906 13.886719 54.433594 13.054688 C 53.753906 12.375 53.0625 12.117188 52.160156 12.222656 L 51.585938 12.292969 L 51.515625 11.695312 C 51.421875 11.039062 51.035156 10.195312 50.578125 9.644531 C 50.414062 9.457031 49.957031 9.117188 49.546875 8.894531 C 48.867188 8.53125 48.726562 8.496094 47.8125 8.507812 C 47.003906 8.507812 46.710938 8.566406 46.230469 8.789062 C 45.492188 9.152344 44.777344 9.855469 44.414062 10.605469 C 44.121094 11.179688 44.121094 11.25 44.085938 14.496094 L 44.050781 17.8125 L 42.1875 17.8125 L 42.1875 17.367188 C 42.1875 15.574219 40.675781 14.0625 38.894531 14.0625 C 38.648438 14.0625 38.203125 14.144531 37.898438 14.25 C 37.605469 14.34375 37.347656 14.414062 37.324219 14.390625 C 37.3125 14.367188 37.207031 14.191406 37.113281 13.992188 C 36.398438 12.585938 34.734375 11.882812 33.269531 12.351562 C 32.941406 12.46875 32.660156 12.539062 32.636719 12.515625 C 32.625 12.492188 32.519531 12.316406 32.425781 12.117188 C 32.109375 11.496094 31.640625 11.015625 31.007812 10.6875 C 30.152344 10.242188 28.910156 10.242188 28.054688 10.6875 C 27.421875 11.015625 26.953125 11.496094 26.636719 12.117188 C 26.542969 12.316406 26.4375 12.492188 26.425781 12.515625 C 26.402344 12.539062 26.144531 12.46875 25.851562 12.375 C 24.644531 11.964844 23.472656 12.257812 22.546875 13.171875 C 21.738281 13.992188 21.5625 14.566406 21.5625 16.429688 L 21.5625 17.8125 L 15.949219 17.8125 L 15.914062 14.496094 L 15.878906 11.191406 L 15.480469 10.453125 C 15.035156 9.632812 14.660156 9.269531 13.804688 8.835938 C 13.171875 8.519531 11.941406 8.367188 11.308594 8.542969 Z M 13.21875 10.628906 C 13.382812 10.746094 13.628906 11.003906 13.757812 11.179688 C 14.003906 11.496094 14.003906 11.566406 14.003906 23.4375 C 14.003906 35.308594 14.003906 35.378906 13.757812 35.695312 C 13.300781 36.316406 12.925781 36.503906 12.1875 36.503906 C 11.449219 36.503906 11.074219 36.316406 10.617188 35.695312 C 10.371094 35.378906 10.371094 35.285156 10.335938 23.753906 C 10.324219 17.355469 10.335938 11.964844 10.371094 11.753906 C 10.453125 11.285156 10.945312 10.6875 11.425781 10.476562 C 11.894531 10.253906 12.832031 10.335938 13.21875 10.628906 Z M 48.84375 10.628906 C 49.007812 10.746094 49.253906 11.003906 49.382812 11.179688 C 49.628906 11.496094 49.628906 11.566406 49.628906 23.4375 C 49.628906 35.308594 49.628906 35.378906 49.382812 35.695312 C 48.925781 36.316406 48.550781 36.503906 47.8125 36.503906 C 47.074219 36.503906 46.699219 36.316406 46.242188 35.695312 C 45.996094 35.378906 45.996094 35.285156 45.960938 23.753906 C 45.949219 17.355469 45.960938 11.964844 45.996094 11.753906 C 46.078125 11.285156 46.570312 10.6875 47.050781 10.476562 C 47.519531 10.253906 48.457031 10.335938 48.84375 10.628906 Z M 30.515625 12.644531 L 30.878906 13.007812 L 30.878906 23.085938 L 30.527344 23.4375 C 30.339844 23.625 30 23.824219 29.789062 23.859375 L 29.390625 23.941406 L 29.660156 23.425781 C 29.882812 23.015625 29.941406 22.722656 29.941406 22.03125 C 29.941406 21.257812 29.894531 21.070312 29.578125 20.507812 C 29.367188 20.132812 28.992188 19.699219 28.664062 19.453125 L 28.113281 19.042969 L 28.148438 16.03125 L 28.183594 13.03125 L 28.476562 12.714844 C 28.863281 12.292969 29.144531 12.175781 29.695312 12.234375 C 30.011719 12.269531 30.269531 12.398438 30.515625 12.644531 Z M 8.144531 14.355469 L 8.4375 14.636719 L 8.4375 32.238281 L 8.144531 32.519531 C 7.769531 32.90625 7.230469 32.90625 6.855469 32.519531 L 6.5625 32.238281 L 6.5625 14.636719 L 6.855469 14.355469 C 7.03125 14.167969 7.277344 14.0625 7.5 14.0625 C 7.722656 14.0625 7.96875 14.167969 8.144531 14.355469 Z M 25.828125 14.519531 L 26.191406 14.882812 L 26.261719 18.75 L 23.425781 18.75 L 23.460938 16.828125 C 23.496094 14.964844 23.507812 14.894531 23.789062 14.589844 C 24.175781 14.167969 24.457031 14.050781 25.007812 14.109375 C 25.324219 14.144531 25.582031 14.273438 25.828125 14.519531 Z M 35.203125 14.519531 L 35.566406 14.882812 L 35.566406 23.085938 L 35.179688 23.460938 C 34.851562 23.789062 34.722656 23.847656 34.21875 23.847656 C 33.714844 23.847656 33.585938 23.789062 33.257812 23.460938 L 32.871094 23.085938 L 32.871094 14.90625 L 33.164062 14.589844 C 33.550781 14.167969 33.832031 14.050781 34.382812 14.109375 C 34.699219 14.144531 34.957031 14.273438 35.203125 14.519531 Z M 53.144531 14.355469 L 53.4375 14.636719 L 53.4375 32.238281 L 53.144531 32.519531 C 52.769531 32.90625 52.230469 32.90625 51.855469 32.519531 L 51.5625 32.238281 L 51.5625 14.636719 L 51.855469 14.355469 C 52.03125 14.167969 52.277344 14.0625 52.5 14.0625 C 52.722656 14.0625 52.96875 14.167969 53.144531 14.355469 Z M 39.890625 16.394531 L 40.253906 16.757812 L 40.253906 23.085938 L 39.867188 23.460938 C 39.539062 23.789062 39.410156 23.847656 38.90625 23.847656 C 38.402344 23.847656 38.273438 23.789062 37.945312 23.460938 L 37.558594 23.085938 L 37.558594 16.78125 L 37.851562 16.464844 C 38.238281 16.042969 38.519531 15.925781 39.070312 15.984375 C 39.386719 16.019531 39.644531 16.148438 39.890625 16.394531 Z M 19.125 20.226562 C 18.84375 20.53125 18.445312 21.128906 18.234375 21.550781 L 17.871094 22.324219 L 17.835938 24.75 L 17.789062 27.1875 L 15.9375 27.1875 L 15.9375 19.6875 L 19.652344 19.6875 Z M 44.0625 23.4375 L 44.0625 27.1875 L 24.375 27.1875 L 24.375 25.335938 L 26.050781 25.289062 C 27.550781 25.242188 27.761719 25.265625 28.183594 25.476562 C 28.875 25.828125 30.222656 25.816406 30.9375 25.441406 C 31.230469 25.289062 31.558594 25.089844 31.675781 24.984375 C 31.851562 24.820312 31.898438 24.820312 32.085938 24.984375 C 32.191406 25.089844 32.519531 25.289062 32.8125 25.441406 C 33.832031 25.96875 35.472656 25.769531 36.363281 24.984375 C 36.539062 24.820312 36.585938 24.820312 36.773438 24.984375 C 37.652344 25.757812 39.292969 25.96875 40.3125 25.441406 C 41.027344 25.066406 41.449219 24.65625 41.8125 23.964844 C 42.105469 23.414062 42.128906 23.261719 42.164062 21.527344 L 42.210938 19.6875 L 44.0625 19.6875 Z M 4.6875 23.4375 C 4.6875 25.511719 4.699219 25.464844 3.949219 25.148438 C 2.484375 24.539062 2.472656 22.359375 3.925781 21.726562 C 4.699219 21.386719 4.6875 21.363281 4.6875 23.4375 Z M 56.355469 21.890625 C 56.929688 22.3125 57.128906 22.710938 57.128906 23.4375 C 57.128906 23.953125 57.070312 24.210938 56.882812 24.445312 C 56.554688 24.902344 56.144531 25.183594 55.699219 25.265625 L 55.3125 25.335938 L 55.3125 21.527344 L 55.699219 21.609375 C 55.898438 21.644531 56.203125 21.773438 56.355469 21.890625 Z M 56.355469 21.890625 "/>
</g>
</svg>
