<?xml version="1.0" encoding="UTF-8"?>
<svg xmlns="http://www.w3.org/2000/svg" xmlns:xlink="http://www.w3.org/1999/xlink" width="60px" height="60px" viewBox="0 0 60 60" version="1.1">
<g id="surface1">
<path style=" stroke:none;fill-rule:nonzero;fill:rgb(0%,0%,0%);fill-opacity:1;" d="M 2.8125 1.089844 C 2.238281 1.277344 1.253906 2.285156 1.078125 2.882812 C 0.867188 3.585938 0.867188 56.414062 1.078125 57.117188 C 1.265625 57.761719 2.238281 58.734375 2.882812 58.921875 C 3.585938 59.132812 56.414062 59.132812 57.117188 58.921875 C 57.761719 58.734375 58.734375 57.761719 58.921875 57.117188 C 59.121094 56.425781 59.132812 3.585938 58.921875 2.90625 C 58.851562 2.648438 58.558594 2.179688 58.277344 1.875 C 57.351562 0.84375 60.09375 0.9375 29.953125 0.949219 C 10.816406 0.960938 3.105469 0.996094 2.8125 1.089844 Z M 56.894531 3.105469 C 57.1875 3.386719 57.1875 3.386719 57.1875 5.917969 L 57.1875 8.4375 L 2.8125 8.4375 L 2.8125 5.917969 C 2.8125 3.386719 2.8125 3.386719 3.105469 3.105469 L 3.386719 2.8125 L 56.613281 2.8125 Z M 57.1875 33.457031 L 57.1875 56.613281 L 56.894531 56.894531 L 56.613281 57.1875 L 3.386719 57.1875 L 3.105469 56.894531 L 2.8125 56.613281 L 2.8125 10.3125 L 57.1875 10.3125 Z M 57.1875 33.457031 "/>
<path style=" stroke:none;fill-rule:nonzero;fill:rgb(0%,0%,0%);fill-opacity:1;" d="M 5.917969 4.980469 C 5.332031 5.554688 5.742188 6.5625 6.5625 6.5625 C 7.042969 6.5625 7.5 6.105469 7.5 5.625 C 7.5 5.144531 7.042969 4.6875 6.5625 4.6875 C 6.339844 4.6875 6.09375 4.792969 5.917969 4.980469 Z M 5.917969 4.980469 "/>
<path style=" stroke:none;fill-rule:nonzero;fill:rgb(0%,0%,0%);fill-opacity:1;" d="M 9.667969 4.980469 C 9.082031 5.554688 9.492188 6.5625 10.3125 6.5625 C 10.792969 6.5625 11.25 6.105469 11.25 5.625 C 11.25 5.144531 10.792969 4.6875 10.3125 4.6875 C 10.089844 4.6875 9.84375 4.792969 9.667969 4.980469 Z M 9.667969 4.980469 "/>
<path style=" stroke:none;fill-rule:nonzero;fill:rgb(0%,0%,0%);fill-opacity:1;" d="M 13.417969 4.980469 C 12.832031 5.554688 13.242188 6.5625 14.0625 6.5625 C 14.542969 6.5625 15 6.105469 15 5.625 C 15 5.144531 14.542969 4.6875 14.0625 4.6875 C 13.839844 4.6875 13.59375 4.792969 13.417969 4.980469 Z M 13.417969 4.980469 "/>
<path style=" stroke:none;fill-rule:nonzero;fill:rgb(0%,0%,0%);fill-opacity:1;" d="M 15.855469 15.175781 C 13.5 15.597656 11.578125 16.628906 9.84375 18.386719 C 8.332031 19.910156 7.359375 21.644531 6.832031 23.742188 C 6.550781 24.855469 6.550781 27.644531 6.832031 28.757812 C 7.359375 30.855469 8.332031 32.589844 9.84375 34.113281 C 11.917969 36.222656 14.355469 37.3125 17.285156 37.464844 C 20.53125 37.628906 23.367188 36.515625 25.722656 34.160156 C 27.328125 32.554688 28.253906 30.925781 28.792969 28.757812 C 29.074219 27.644531 29.074219 24.855469 28.792969 23.742188 C 28.5 22.582031 27.949219 21.28125 27.328125 20.273438 C 26.601562 19.078125 24.914062 17.425781 23.683594 16.664062 C 21.386719 15.257812 18.46875 14.695312 15.855469 15.175781 Z M 20.039062 17.144531 C 22.488281 17.8125 24.339844 19.148438 25.675781 21.1875 C 26.707031 22.757812 27.128906 24.210938 27.128906 26.25 C 27.128906 28.898438 26.25 31.03125 24.421875 32.859375 C 20.789062 36.492188 14.90625 36.515625 11.261719 32.917969 C 9.375 31.054688 8.496094 28.933594 8.496094 26.25 C 8.496094 24.210938 8.917969 22.769531 9.960938 21.164062 C 11.34375 19.054688 13.511719 17.578125 16.054688 17.039062 C 16.992188 16.839844 19.125 16.898438 20.039062 17.144531 Z M 20.039062 17.144531 "/>
<path style=" stroke:none;fill-rule:nonzero;fill:rgb(0%,0%,0%);fill-opacity:1;" d="M 16.933594 18.855469 C 15.855469 19.136719 14.90625 19.910156 14.414062 20.917969 C 14.179688 21.398438 14.132812 21.691406 14.132812 22.5 C 14.132812 23.554688 14.296875 24.046875 14.964844 24.925781 L 15.246094 25.3125 L 14.929688 25.3125 C 14.261719 25.3125 13.652344 25.59375 13.066406 26.191406 C 12.28125 26.964844 12.1875 27.339844 12.1875 29.519531 C 12.1875 31.253906 12.199219 31.3125 12.480469 31.582031 L 12.761719 31.875 L 22.863281 31.875 L 23.144531 31.582031 C 23.425781 31.3125 23.4375 31.253906 23.4375 29.519531 C 23.4375 27.421875 23.34375 27.011719 22.652344 26.25 C 22.125 25.664062 21.398438 25.3125 20.71875 25.3125 L 20.378906 25.3125 L 20.660156 24.925781 C 21.328125 24.046875 21.492188 23.554688 21.492188 22.5 C 21.492188 21.65625 21.445312 21.410156 21.1875 20.90625 C 20.730469 20.027344 20.367188 19.652344 19.582031 19.230469 C 18.820312 18.832031 17.660156 18.65625 16.933594 18.855469 Z M 18.550781 20.789062 C 19.757812 21.292969 20.050781 22.863281 19.113281 23.800781 C 18.351562 24.5625 17.273438 24.5625 16.511719 23.800781 C 15.058594 22.359375 16.664062 19.992188 18.550781 20.789062 Z M 21.269531 27.480469 C 21.539062 27.738281 21.5625 27.855469 21.5625 28.886719 L 21.5625 30 L 14.0625 30 L 14.0625 28.886719 C 14.0625 27.855469 14.085938 27.738281 14.355469 27.480469 L 14.636719 27.1875 L 20.988281 27.1875 Z M 21.269531 27.480469 "/>
<path style=" stroke:none;fill-rule:nonzero;fill:rgb(0%,0%,0%);fill-opacity:1;" d="M 34.746094 17.917969 C 33.679688 18.1875 32.71875 18.972656 32.226562 19.980469 C 32.003906 20.460938 31.945312 20.753906 31.945312 21.5625 C 31.933594 22.476562 31.96875 22.617188 32.332031 23.296875 C 32.777344 24.117188 33.140625 24.46875 34.03125 24.9375 L 34.628906 25.253906 L 50.683594 25.253906 L 51.421875 24.855469 C 52.242188 24.410156 52.605469 24.035156 53.0625 23.15625 C 53.320312 22.652344 53.367188 22.40625 53.367188 21.5625 C 53.367188 20.71875 53.320312 20.472656 53.0625 19.96875 C 52.605469 19.089844 52.242188 18.714844 51.421875 18.269531 L 50.683594 17.871094 L 42.890625 17.847656 C 38.601562 17.835938 34.945312 17.871094 34.746094 17.917969 Z M 50.695312 19.992188 C 51.316406 20.449219 51.503906 20.824219 51.503906 21.5625 C 51.503906 22.300781 51.316406 22.675781 50.695312 23.132812 C 50.378906 23.378906 50.238281 23.378906 42.914062 23.414062 C 37.886719 23.4375 35.308594 23.414062 35.015625 23.320312 C 33.832031 22.980469 33.375 21.351562 34.183594 20.378906 C 34.78125 19.675781 34.511719 19.6875 42.796875 19.722656 C 50.25 19.746094 50.378906 19.746094 50.695312 19.992188 Z M 50.695312 19.992188 "/>
<path style=" stroke:none;fill-rule:nonzero;fill:rgb(0%,0%,0%);fill-opacity:1;" d="M 34.746094 27.292969 C 33.679688 27.5625 32.71875 28.347656 32.226562 29.355469 C 32.003906 29.835938 31.945312 30.128906 31.945312 30.9375 C 31.933594 31.851562 31.96875 31.992188 32.332031 32.671875 C 32.777344 33.492188 33.140625 33.84375 34.03125 34.3125 L 34.628906 34.628906 L 50.683594 34.628906 L 51.421875 34.230469 C 52.242188 33.785156 52.605469 33.410156 53.0625 32.53125 C 53.320312 32.027344 53.367188 31.78125 53.367188 30.9375 C 53.367188 30.09375 53.320312 29.847656 53.0625 29.34375 C 52.605469 28.464844 52.242188 28.089844 51.421875 27.644531 L 50.683594 27.246094 L 42.890625 27.222656 C 38.601562 27.210938 34.945312 27.246094 34.746094 27.292969 Z M 50.695312 29.367188 C 51.316406 29.824219 51.503906 30.199219 51.503906 30.9375 C 51.503906 31.675781 51.316406 32.050781 50.695312 32.507812 C 50.378906 32.753906 50.238281 32.753906 42.914062 32.789062 C 37.886719 32.8125 35.308594 32.789062 35.015625 32.695312 C 33.832031 32.355469 33.375 30.726562 34.183594 29.753906 C 34.78125 29.050781 34.511719 29.0625 42.796875 29.097656 C 50.25 29.121094 50.378906 29.121094 50.695312 29.367188 Z M 50.695312 29.367188 "/>
<path style=" stroke:none;fill-rule:nonzero;fill:rgb(0%,0%,0%);fill-opacity:1;" d="M 9.667969 41.542969 L 9.375 41.824219 L 9.375 51.925781 L 9.667969 52.207031 L 9.949219 52.5 L 20.050781 52.5 L 20.332031 52.207031 C 20.625 51.925781 20.625 51.902344 20.625 49.6875 C 20.625 47.472656 20.625 47.449219 20.332031 47.167969 C 19.957031 46.78125 19.417969 46.78125 19.042969 47.167969 C 18.761719 47.4375 18.75 47.507812 18.75 49.042969 L 18.75 50.625 L 11.25 50.625 L 11.25 43.125 L 17.238281 43.125 L 17.519531 42.832031 C 17.707031 42.65625 17.8125 42.410156 17.8125 42.1875 C 17.8125 41.964844 17.707031 41.71875 17.519531 41.542969 L 17.238281 41.25 L 9.949219 41.25 Z M 9.667969 41.542969 "/>
<path style=" stroke:none;fill-rule:nonzero;fill:rgb(0%,0%,0%);fill-opacity:1;" d="M 18.550781 43.851562 L 15.9375 46.453125 L 14.730469 45.257812 C 13.699219 44.25 13.453125 44.0625 13.136719 44.0625 C 12.632812 44.0625 12.1875 44.507812 12.1875 45.023438 C 12.1875 45.351562 12.398438 45.609375 13.863281 47.074219 C 15.363281 48.585938 15.574219 48.75 15.9375 48.75 C 16.3125 48.75 16.582031 48.503906 19.417969 45.667969 C 22.195312 42.902344 22.5 42.550781 22.5 42.210938 C 22.5 41.695312 22.054688 41.25 21.539062 41.25 C 21.210938 41.25 20.882812 41.53125 18.550781 43.851562 Z M 18.550781 43.851562 "/>
<path style=" stroke:none;fill-rule:nonzero;fill:rgb(0%,0%,0%);fill-opacity:1;" d="M 24.667969 42.480469 C 24.480469 42.65625 24.375 42.902344 24.375 43.125 C 24.375 43.347656 24.480469 43.59375 24.667969 43.769531 L 24.949219 44.0625 L 52.863281 44.0625 L 53.144531 43.769531 C 53.332031 43.59375 53.4375 43.347656 53.4375 43.125 C 53.4375 42.902344 53.332031 42.65625 53.144531 42.480469 L 52.863281 42.1875 L 24.949219 42.1875 Z M 24.667969 42.480469 "/>
<path style=" stroke:none;fill-rule:nonzero;fill:rgb(0%,0%,0%);fill-opacity:1;" d="M 24.667969 46.230469 C 24.480469 46.40625 24.375 46.652344 24.375 46.875 C 24.375 47.097656 24.480469 47.34375 24.667969 47.519531 L 24.949219 47.8125 L 52.863281 47.8125 L 53.144531 47.519531 C 53.332031 47.34375 53.4375 47.097656 53.4375 46.875 C 53.4375 46.652344 53.332031 46.40625 53.144531 46.230469 L 52.863281 45.9375 L 24.949219 45.9375 Z M 24.667969 46.230469 "/>
<path style=" stroke:none;fill-rule:nonzero;fill:rgb(0%,0%,0%);fill-opacity:1;" d="M 24.667969 49.980469 C 24.480469 50.15625 24.375 50.402344 24.375 50.625 C 24.375 50.847656 24.480469 51.09375 24.667969 51.269531 L 24.949219 51.5625 L 44.191406 51.5625 L 44.472656 51.269531 C 44.660156 51.09375 44.765625 50.847656 44.765625 50.625 C 44.765625 50.402344 44.660156 50.15625 44.472656 49.980469 L 44.191406 49.6875 L 24.949219 49.6875 Z M 24.667969 49.980469 "/>
</g>
</svg>
