<?xml version="1.0" encoding="UTF-8"?>
<svg xmlns="http://www.w3.org/2000/svg" xmlns:xlink="http://www.w3.org/1999/xlink" width="60px" height="60px" viewBox="0 0 60 60" version="1.1">
<g id="surface1">
<path style=" stroke:none;fill-rule:nonzero;fill:rgb(0%,0%,0%);fill-opacity:1;" d="M 29.425781 0.164062 C 28.898438 0.457031 28.839844 0.738281 28.828125 2.90625 C 28.828125 4.441406 28.863281 5.015625 28.992188 5.261719 C 29.402344 6.035156 30.597656 6.035156 31.007812 5.261719 C 31.21875 4.839844 31.242188 1.101562 31.03125 0.644531 C 30.773438 0.0820312 30 -0.152344 29.425781 0.164062 Z M 29.425781 0.164062 "/>
<path style=" stroke:none;fill-rule:nonzero;fill:rgb(0%,0%,0%);fill-opacity:1;" d="M 9.585938 8.390625 C 9.410156 8.484375 9.175781 8.71875 9.070312 8.917969 C 8.742188 9.574219 8.917969 9.890625 10.535156 11.507812 C 12.011719 12.984375 12.035156 13.007812 12.5625 13.007812 C 13.300781 13.007812 13.710938 12.597656 13.710938 11.871094 C 13.710938 11.367188 13.675781 11.308594 12.339844 9.9375 C 11.085938 8.660156 10.476562 8.191406 10.054688 8.203125 C 9.972656 8.214844 9.761719 8.285156 9.585938 8.390625 Z M 9.585938 8.390625 "/>
<path style=" stroke:none;fill-rule:nonzero;fill:rgb(0%,0%,0%);fill-opacity:1;" d="M 49.371094 8.390625 C 49.171875 8.496094 48.398438 9.199219 47.648438 9.960938 C 46.324219 11.308594 46.289062 11.367188 46.289062 11.871094 C 46.289062 12.597656 46.699219 13.007812 47.4375 13.007812 C 47.964844 13.007812 47.988281 12.984375 49.464844 11.507812 C 51.082031 9.890625 51.257812 9.574219 50.917969 8.917969 C 50.742188 8.566406 50.214844 8.203125 49.898438 8.203125 C 49.816406 8.203125 49.582031 8.285156 49.371094 8.390625 Z M 49.371094 8.390625 "/>
<path style=" stroke:none;fill-rule:nonzero;fill:rgb(0%,0%,0%);fill-opacity:1;" d="M 27.152344 10.664062 C 26.472656 10.839844 25.570312 11.332031 25.007812 11.859375 C 24.46875 12.351562 23.671875 13.78125 23.671875 14.25 C 23.671875 14.648438 23.519531 14.671875 22.898438 14.390625 C 22.429688 14.179688 22.101562 14.121094 21.210938 14.121094 C 20.203125 14.121094 20.027344 14.15625 19.3125 14.496094 C 18.222656 15.011719 17.542969 15.667969 17.015625 16.734375 L 16.582031 17.625 L 16.546875 20.636719 L 16.511719 23.660156 L 15.761719 24.011719 C 14.707031 24.492188 14.027344 25.171875 13.5 26.226562 L 13.066406 27.117188 L 13.03125 32.390625 C 12.996094 38.0625 13.042969 38.835938 13.558594 40.488281 C 14.390625 43.125 16.441406 45.785156 19.125 47.660156 L 20.039062 48.304688 L 20.039062 53.671875 C 20.039062 59.449219 20.050781 59.519531 20.636719 59.835938 C 21.105469 60.070312 24.832031 60.070312 25.300781 59.835938 C 26.074219 59.425781 26.074219 58.230469 25.300781 57.820312 C 25.078125 57.703125 24.574219 57.65625 23.671875 57.65625 L 22.382812 57.65625 L 22.382812 52.464844 C 22.371094 48.503906 22.335938 47.226562 22.230469 47.015625 C 22.148438 46.875 21.738281 46.546875 21.328125 46.289062 C 18.199219 44.367188 16.125 41.660156 15.527344 38.730469 C 15.375 37.933594 15.351562 37.019531 15.375 32.625 L 15.410156 27.46875 L 15.726562 26.988281 C 15.902344 26.730469 16.242188 26.390625 16.488281 26.238281 L 16.933594 25.957031 L 23.707031 25.921875 C 27.421875 25.910156 30.46875 25.910156 30.46875 25.933594 C 30.46875 25.957031 30.363281 26.285156 30.234375 26.660156 C 29.589844 28.523438 28.066406 29.894531 26.074219 30.410156 C 25.570312 30.539062 24.773438 30.585938 23.167969 30.585938 C 20.765625 30.585938 20.4375 30.65625 20.179688 31.230469 C 19.992188 31.628906 20.003906 31.933594 20.214844 32.332031 C 20.425781 32.753906 20.8125 32.894531 21.914062 32.976562 C 23.507812 33.09375 24.972656 33.585938 26.273438 34.441406 C 28.769531 36.070312 30.316406 38.683594 30.539062 41.601562 C 30.621094 42.703125 30.761719 43.089844 31.183594 43.300781 C 32.0625 43.757812 32.929688 43.183594 32.929688 42.140625 C 32.929688 39.234375 35.707031 36.445312 38.613281 36.445312 C 39.386719 36.445312 39.960938 35.941406 39.960938 35.273438 C 39.960938 34.886719 39.65625 34.394531 39.316406 34.242188 C 38.566406 33.902344 36.703125 34.230469 35.15625 34.992188 C 34.230469 35.449219 33.867188 35.71875 33 36.585938 C 32.425781 37.148438 31.945312 37.605469 31.933594 37.59375 C 31.910156 37.570312 31.746094 37.230469 31.546875 36.84375 C 30.820312 35.402344 28.933594 33.246094 27.890625 32.695312 C 27.5625 32.519531 27.597656 32.390625 28.042969 32.214844 C 29.308594 31.710938 31.042969 30.175781 31.757812 28.910156 L 32.132812 28.242188 L 32.460938 28.476562 C 32.648438 28.617188 33.105469 28.863281 33.480469 29.039062 C 34.125 29.34375 34.253906 29.355469 35.929688 29.355469 L 37.710938 29.355469 L 38.027344 30.09375 C 38.484375 31.148438 39.210938 31.898438 40.289062 32.425781 C 41.132812 32.847656 41.238281 32.871094 42.292969 32.871094 C 43.207031 32.871094 43.523438 32.8125 43.992188 32.601562 C 44.308594 32.460938 44.589844 32.34375 44.613281 32.34375 C 44.648438 32.34375 44.648438 33.75 44.613281 35.472656 C 44.554688 38.871094 44.496094 39.257812 43.816406 40.757812 C 42.867188 42.855469 40.96875 44.882812 38.601562 46.335938 C 38.203125 46.570312 37.828125 46.898438 37.746094 47.0625 C 37.652344 47.261719 37.617188 48.914062 37.617188 52.5 L 37.617188 57.65625 L 36.328125 57.65625 C 34.886719 57.65625 34.476562 57.785156 34.242188 58.300781 C 33.972656 58.898438 34.160156 59.554688 34.699219 59.835938 C 35.167969 60.070312 38.894531 60.070312 39.363281 59.835938 C 39.949219 59.519531 39.960938 59.449219 39.960938 53.671875 L 39.960938 48.304688 L 40.933594 47.625 C 41.460938 47.25 42.421875 46.417969 43.078125 45.773438 C 45.269531 43.582031 46.488281 41.296875 46.875 38.613281 C 46.96875 37.957031 46.992188 35.167969 46.96875 29.402344 L 46.933594 21.140625 L 46.5 20.25 C 45.972656 19.183594 45.292969 18.527344 44.203125 18.011719 C 43.488281 17.671875 43.3125 17.636719 42.304688 17.636719 C 41.414062 17.636719 41.085938 17.695312 40.617188 17.90625 C 39.996094 18.1875 39.84375 18.164062 39.84375 17.765625 C 39.84375 17.285156 39.046875 15.867188 38.484375 15.351562 C 38.191406 15.082031 37.605469 14.695312 37.171875 14.496094 C 36.457031 14.15625 36.28125 14.121094 35.273438 14.121094 C 34.382812 14.121094 34.054688 14.179688 33.585938 14.390625 C 32.964844 14.671875 32.8125 14.648438 32.8125 14.25 C 32.8125 13.769531 32.015625 12.351562 31.453125 11.835938 C 30.632812 11.085938 29.601562 10.652344 28.5 10.59375 C 28.007812 10.570312 27.398438 10.605469 27.152344 10.664062 Z M 29.53125 13.289062 C 29.777344 13.441406 30.09375 13.78125 30.246094 14.027344 L 30.527344 14.472656 L 30.5625 19.007812 L 30.597656 23.554688 L 25.898438 23.554688 L 25.898438 19.242188 C 25.898438 16.582031 25.945312 14.777344 26.027344 14.496094 C 26.179688 13.957031 26.917969 13.171875 27.445312 13.019531 C 28.066406 12.832031 29.027344 12.949219 29.53125 13.289062 Z M 22.5 16.804688 C 22.746094 16.957031 23.0625 17.296875 23.214844 17.542969 C 23.484375 17.976562 23.496094 18.082031 23.53125 20.765625 L 23.566406 23.554688 L 18.867188 23.554688 L 18.867188 21 C 18.867188 19.570312 18.925781 18.257812 18.996094 18.011719 C 19.148438 17.472656 19.886719 16.6875 20.414062 16.535156 C 21.035156 16.347656 21.996094 16.464844 22.5 16.804688 Z M 36.5625 16.804688 C 36.808594 16.957031 37.125 17.296875 37.277344 17.542969 C 37.558594 17.988281 37.558594 17.988281 37.59375 22.40625 L 37.628906 26.824219 L 37.371094 26.953125 C 37.207031 27.046875 36.65625 27.082031 35.8125 27.046875 C 34.3125 27 33.855469 26.8125 33.304688 25.980469 L 32.988281 25.511719 L 32.953125 22.019531 C 32.929688 19.722656 32.964844 18.363281 33.046875 18.046875 C 33.199219 17.472656 33.925781 16.699219 34.476562 16.535156 C 35.097656 16.347656 36.058594 16.464844 36.5625 16.804688 Z M 43.59375 20.320312 C 43.839844 20.472656 44.15625 20.8125 44.308594 21.058594 C 44.589844 21.503906 44.589844 21.515625 44.589844 25.265625 L 44.589844 29.015625 L 44.273438 29.496094 C 43.792969 30.222656 43.21875 30.527344 42.304688 30.527344 C 41.390625 30.527344 40.816406 30.222656 40.335938 29.496094 L 40.019531 29.027344 L 39.984375 25.535156 C 39.960938 23.238281 39.996094 21.878906 40.078125 21.5625 C 40.230469 20.988281 40.957031 20.214844 41.507812 20.050781 C 42.128906 19.863281 43.089844 19.980469 43.59375 20.320312 Z M 43.59375 20.320312 "/>
<path style=" stroke:none;fill-rule:nonzero;fill:rgb(0%,0%,0%);fill-opacity:1;" d="M 0.597656 28.992188 C -0.1875 29.425781 -0.164062 30.667969 0.644531 31.03125 C 1.113281 31.242188 5.53125 31.21875 5.964844 31.007812 C 6.738281 30.597656 6.738281 29.402344 5.964844 28.992188 C 5.507812 28.769531 1.019531 28.757812 0.597656 28.992188 Z M 0.597656 28.992188 "/>
<path style=" stroke:none;fill-rule:nonzero;fill:rgb(0%,0%,0%);fill-opacity:1;" d="M 54.035156 28.992188 C 53.25 29.425781 53.273438 30.667969 54.082031 31.03125 C 54.550781 31.242188 58.96875 31.21875 59.402344 31.007812 C 60.175781 30.597656 60.175781 29.402344 59.402344 28.992188 C 58.945312 28.769531 54.457031 28.757812 54.035156 28.992188 Z M 54.035156 28.992188 "/>
<path style=" stroke:none;fill-rule:nonzero;fill:rgb(0%,0%,0%);fill-opacity:1;" d="M 29.425781 57.820312 C 28.40625 58.382812 28.839844 60 30 60 C 30.597656 60 31.171875 59.425781 31.171875 58.839844 C 31.171875 57.960938 30.199219 57.386719 29.425781 57.820312 Z M 29.425781 57.820312 "/>
</g>
</svg>
