<?xml version="1.0" encoding="UTF-8"?>
<svg xmlns="http://www.w3.org/2000/svg" xmlns:xlink="http://www.w3.org/1999/xlink" width="60px" height="60px" viewBox="0 0 60 60" version="1.1">
<g id="surface1">
<path style=" stroke:none;fill-rule:nonzero;fill:rgb(0%,0%,0%);fill-opacity:1;" d="M 10.488281 0.222656 C 9.890625 0.492188 9.304688 1.148438 9.152344 1.722656 C 9.082031 1.96875 9.023438 2.742188 9.023438 3.457031 C 9.023438 4.992188 9.140625 5.484375 9.644531 6.058594 C 10.230469 6.726562 10.757812 6.914062 12.164062 6.914062 L 13.359375 6.914062 L 13.359375 9.011719 L 9.644531 9.046875 C 6.117188 9.082031 5.882812 9.105469 5.273438 9.351562 C 4.042969 9.84375 2.917969 11.003906 2.496094 12.210938 C 2.332031 12.691406 2.285156 13.148438 2.296875 14.238281 C 2.355469 20.296875 6.011719 26.214844 11.4375 29.027344 C 13.359375 30.035156 14.449219 30.363281 19.160156 31.40625 L 21.386719 31.910156 L 22.335938 32.800781 C 22.851562 33.292969 23.636719 33.949219 24.070312 34.277344 L 24.855469 34.863281 L 24.796875 36.738281 C 24.761719 38.214844 24.679688 38.859375 24.445312 39.796875 C 23.90625 41.964844 23.0625 43.804688 21.820312 45.527344 L 21.152344 46.464844 L 17.929688 46.523438 C 14.847656 46.582031 14.683594 46.59375 14.144531 46.851562 C 13.839844 47.003906 13.429688 47.320312 13.242188 47.554688 C 12.5625 48.375 12.527344 48.738281 12.5625 53.578125 C 12.597656 57.796875 12.609375 57.960938 12.855469 58.417969 C 13.183594 59.027344 13.652344 59.460938 14.296875 59.753906 C 14.824219 59.988281 14.988281 60 30 60 C 45.011719 60 45.175781 59.988281 45.703125 59.753906 C 46.347656 59.460938 46.816406 59.027344 47.144531 58.417969 C 47.390625 57.960938 47.402344 57.796875 47.4375 53.578125 C 47.472656 48.738281 47.4375 48.375 46.757812 47.554688 C 46.570312 47.320312 46.160156 47.003906 45.855469 46.851562 C 45.316406 46.59375 45.152344 46.582031 42.070312 46.523438 L 38.847656 46.464844 L 38.179688 45.527344 C 36.902344 43.769531 35.90625 41.519531 35.4375 39.363281 C 35.332031 38.882812 35.226562 37.746094 35.191406 36.832031 L 35.121094 35.167969 L 35.683594 35.460938 C 36 35.613281 36.375 35.742188 36.515625 35.742188 C 36.832031 35.742188 37.089844 36.09375 37.195312 36.679688 C 37.300781 37.253906 37.746094 37.875 38.25 38.144531 L 38.671875 38.378906 L 38.671875 43.96875 L 39.070312 44.367188 C 39.714844 45.011719 40.03125 44.953125 42.082031 43.722656 C 42.621094 43.394531 43.136719 43.125 43.21875 43.125 C 43.3125 43.125 43.992188 43.5 44.753906 43.945312 C 46.359375 44.90625 46.792969 44.988281 47.355469 44.425781 L 47.695312 44.085938 L 47.695312 38.484375 L 48.222656 38.109375 C 48.820312 37.6875 49.183594 37.160156 49.289062 36.5625 C 49.382812 35.941406 49.488281 35.8125 50.015625 35.71875 C 51.621094 35.449219 52.347656 34.195312 51.902344 32.460938 L 51.75 31.863281 L 52.242188 31.417969 C 52.511719 31.171875 52.816406 30.773438 52.910156 30.539062 C 53.296875 29.625 53.015625 28.511719 52.21875 27.796875 C 51.984375 27.585938 51.796875 27.304688 51.796875 27.175781 C 51.796875 27.035156 52.230469 26.472656 52.863281 25.804688 C 55.957031 22.5 57.632812 18.503906 57.691406 14.296875 C 57.714844 12.914062 57.679688 12.632812 57.457031 12.09375 C 56.941406 10.839844 55.863281 9.773438 54.609375 9.292969 C 54.164062 9.128906 53.53125 9.082031 50.367188 9.046875 L 46.640625 9.011719 L 46.640625 6.914062 L 47.847656 6.914062 C 48.75 6.914062 49.160156 6.855469 49.511719 6.691406 C 50.109375 6.421875 50.695312 5.765625 50.847656 5.191406 C 51.011719 4.617188 51.011719 2.296875 50.847656 1.722656 C 50.695312 1.148438 50.109375 0.492188 49.511719 0.222656 C 49.066406 0.0117188 48.164062 0 30 0 C 11.835938 0 10.933594 0.0117188 10.488281 0.222656 Z M 48.984375 1.992188 C 49.183594 2.191406 49.21875 2.378906 49.21875 3.433594 C 49.21875 4.335938 49.171875 4.699219 49.03125 4.898438 L 48.855469 5.15625 L 22.722656 5.15625 L 22.441406 5.449219 C 22.066406 5.8125 22.066406 6.257812 22.441406 6.621094 L 22.722656 6.914062 L 44.882812 6.914062 L 44.882812 9.691406 C 44.882812 13.957031 44.660156 16.359375 44.039062 18.820312 L 43.804688 19.769531 L 43.183594 19.78125 C 42.433594 19.78125 42.175781 19.910156 41.460938 20.601562 L 40.910156 21.140625 L 40.277344 20.917969 C 39.1875 20.554688 38.144531 20.882812 37.523438 21.796875 C 37.382812 22.007812 37.230469 22.324219 37.195312 22.488281 C 37.019531 23.378906 36.972656 23.425781 36.082031 23.601562 C 35.917969 23.636719 35.601562 23.789062 35.390625 23.929688 C 34.476562 24.550781 34.148438 25.59375 34.511719 26.683594 L 34.722656 27.304688 L 34.125 27.9375 C 33.796875 28.289062 33.492188 28.722656 33.457031 28.898438 C 33.421875 29.085938 33.363281 29.332031 33.339844 29.4375 C 33.234375 29.988281 33.550781 30.738281 34.125 31.324219 C 34.476562 31.675781 34.6875 31.992188 34.652344 32.097656 C 34.617188 32.203125 34.523438 32.53125 34.441406 32.824219 C 34.3125 33.304688 34.207031 33.421875 33.363281 33.972656 C 31.769531 35.039062 31.289062 35.214844 29.988281 35.214844 C 28.886719 35.214844 28.828125 35.203125 27.878906 34.710938 C 26.625 34.078125 24.667969 32.613281 23.238281 31.253906 C 19.863281 28.019531 17.449219 24.046875 16.171875 19.605469 C 15.386719 16.863281 15.117188 14.34375 15.117188 9.75 L 15.117188 6.914062 L 17.167969 6.914062 C 19.195312 6.914062 19.230469 6.914062 19.511719 6.621094 C 19.886719 6.257812 19.886719 5.8125 19.511719 5.449219 L 19.230469 5.15625 L 11.144531 5.15625 L 10.96875 4.898438 C 10.828125 4.699219 10.78125 4.335938 10.78125 3.433594 C 10.78125 1.523438 8.121094 1.757812 30 1.757812 C 48.597656 1.757812 48.75 1.757812 48.984375 1.992188 Z M 13.359375 11.894531 L 13.359375 13.007812 L 6.890625 13.007812 L 6.539062 13.371094 L 6.175781 13.722656 L 6.246094 14.859375 C 6.457031 18.082031 7.886719 21.035156 10.371094 23.425781 C 12.058594 25.042969 13.96875 26.109375 16.253906 26.707031 L 17.519531 27.035156 L 18.035156 27.785156 C 18.316406 28.195312 18.726562 28.792969 18.960938 29.109375 C 19.289062 29.554688 19.324219 29.660156 19.148438 29.613281 C 19.03125 29.566406 18.1875 29.378906 17.285156 29.179688 C 15.433594 28.78125 14.484375 28.488281 13.3125 27.984375 C 7.898438 25.640625 4.125 20.074219 4.054688 14.296875 C 4.042969 13.183594 4.078125 12.878906 4.265625 12.539062 C 4.699219 11.707031 5.460938 11.085938 6.269531 10.886719 C 6.46875 10.839844 8.132812 10.804688 9.996094 10.792969 L 13.359375 10.78125 Z M 54.257812 11.0625 C 54.832031 11.367188 55.40625 11.929688 55.699219 12.480469 C 56.226562 13.441406 55.910156 16.722656 55.089844 18.972656 C 54.421875 20.777344 53.238281 22.792969 52.125 24 L 51.691406 24.480469 L 51.328125 24.140625 C 51.117188 23.941406 50.730469 23.730469 50.472656 23.660156 C 50.203125 23.589844 49.910156 23.507812 49.816406 23.484375 C 49.710938 23.449219 49.875 23.203125 50.285156 22.757812 C 51.972656 20.976562 53.027344 18.902344 53.554688 16.300781 C 53.683594 15.667969 53.789062 14.8125 53.789062 14.414062 C 53.789062 13.769531 53.753906 13.652344 53.449219 13.347656 L 53.109375 13.007812 L 46.640625 13.007812 L 46.640625 10.769531 L 50.25 10.804688 C 53.496094 10.839844 53.882812 10.863281 54.257812 11.0625 Z M 13.523438 15.140625 C 13.558594 15.351562 13.617188 15.785156 13.652344 16.113281 C 13.933594 18.375 14.871094 21.679688 15.820312 23.742188 C 16.078125 24.304688 16.265625 24.785156 16.242188 24.820312 C 16.160156 24.902344 15.351562 24.609375 14.472656 24.164062 C 10.945312 22.417969 8.636719 19.207031 8.027344 15.257812 L 7.945312 14.765625 L 13.464844 14.765625 Z M 51.972656 15.257812 C 51.679688 17.203125 50.671875 19.558594 49.558594 20.953125 L 48.972656 21.679688 L 48.539062 21.339844 C 47.753906 20.730469 47.0625 20.613281 46.125 20.929688 C 45.292969 21.210938 45.269531 21.117188 45.679688 19.488281 C 45.984375 18.304688 46.148438 17.402344 46.476562 15.140625 L 46.535156 14.765625 L 52.054688 14.765625 Z M 44.003906 22.101562 C 44.753906 22.839844 45.457031 23.003906 46.511719 22.652344 C 47.074219 22.476562 47.121094 22.476562 47.332031 22.664062 C 47.449219 22.769531 47.589844 23.085938 47.625 23.355469 C 47.777344 24.304688 48.457031 24.972656 49.546875 25.242188 C 50.25 25.417969 50.367188 25.628906 50.179688 26.308594 C 49.875 27.445312 50.132812 28.417969 50.90625 29.003906 C 51.445312 29.414062 51.445312 29.71875 50.90625 30.246094 C 50.214844 30.902344 50.003906 31.441406 50.085938 32.273438 C 50.273438 33.914062 50.273438 33.902344 49.441406 34.042969 C 48.585938 34.171875 47.765625 34.992188 47.636719 35.847656 C 47.496094 36.679688 47.507812 36.679688 45.867188 36.492188 C 45.035156 36.410156 44.496094 36.621094 43.839844 37.3125 C 43.3125 37.851562 43.007812 37.851562 42.597656 37.3125 C 42.011719 36.539062 41.039062 36.28125 39.902344 36.585938 C 39.210938 36.773438 39.023438 36.65625 38.835938 35.929688 C 38.753906 35.625 38.554688 35.167969 38.402344 34.921875 C 38.085938 34.453125 37.277344 33.984375 36.773438 33.984375 C 36.609375 33.984375 36.386719 33.878906 36.269531 33.75 C 36.070312 33.527344 36.070312 33.480469 36.246094 32.917969 C 36.597656 31.863281 36.433594 31.148438 35.695312 30.421875 C 34.96875 29.707031 34.957031 29.613281 35.566406 28.957031 C 36.433594 28.03125 36.609375 27.363281 36.257812 26.332031 C 36.058594 25.734375 36.175781 25.3125 36.539062 25.3125 C 36.996094 25.3125 37.652344 25.042969 38.039062 24.703125 C 38.53125 24.269531 38.730469 23.894531 38.847656 23.226562 C 38.953125 22.558594 39.222656 22.429688 39.925781 22.664062 C 40.957031 23.015625 41.625 22.839844 42.550781 21.972656 C 43.195312 21.363281 43.277344 21.375 44.003906 22.101562 Z M 28.441406 36.808594 C 28.933594 36.925781 29.636719 37.03125 30 37.03125 C 30.773438 37.03125 32.238281 36.679688 32.90625 36.339844 L 33.363281 36.105469 L 33.433594 37.359375 C 33.585938 40.160156 34.617188 43.324219 36.128906 45.644531 L 36.667969 46.464844 L 33.328125 46.5 C 31.5 46.511719 28.5 46.511719 26.671875 46.5 L 23.332031 46.464844 L 23.871094 45.644531 C 25.382812 43.324219 26.414062 40.160156 26.566406 37.359375 L 26.636719 36.105469 L 27.09375 36.339844 C 27.351562 36.46875 27.960938 36.679688 28.441406 36.808594 Z M 41.390625 38.625 C 42.421875 39.773438 44.179688 39.761719 45.058594 38.601562 C 45.257812 38.34375 45.457031 38.203125 45.65625 38.203125 L 45.9375 38.203125 L 45.9375 40.371094 C 45.9375 41.566406 45.902344 42.539062 45.867188 42.539062 C 45.832031 42.539062 45.316406 42.246094 44.71875 41.894531 C 43.3125 41.050781 43.171875 41.050781 41.625 41.953125 L 40.429688 42.644531 L 40.429688 38.203125 L 40.722656 38.203125 C 40.910156 38.203125 41.144531 38.355469 41.390625 38.625 Z M 45.058594 48.445312 C 45.691406 48.714844 45.726562 48.984375 45.679688 53.589844 L 45.644531 57.679688 L 44.988281 58.242188 L 15.011719 58.242188 L 14.355469 57.679688 L 14.320312 53.589844 C 14.273438 49.019531 14.320312 48.714844 14.917969 48.457031 C 15.480469 48.210938 44.460938 48.199219 45.058594 48.445312 Z M 45.058594 48.445312 "/>
<path style=" stroke:none;fill-rule:nonzero;fill:rgb(0%,0%,0%);fill-opacity:1;" d="M 41.988281 24.667969 C 39.949219 25.21875 38.53125 26.765625 38.179688 28.828125 C 37.664062 31.851562 40.042969 34.6875 43.113281 34.710938 C 44.648438 34.710938 45.796875 34.253906 46.828125 33.234375 C 47.847656 32.203125 48.304688 31.054688 48.304688 29.519531 C 48.28125 26.261719 45.105469 23.835938 41.988281 24.667969 Z M 44.71875 26.636719 C 45.832031 27.199219 46.523438 28.300781 46.546875 29.507812 C 46.570312 31.523438 45.117188 32.976562 43.101562 32.953125 C 40.957031 32.917969 39.398438 30.785156 39.996094 28.699219 C 40.59375 26.671875 42.855469 25.6875 44.71875 26.636719 Z M 44.71875 26.636719 "/>
<path style=" stroke:none;fill-rule:nonzero;fill:rgb(0%,0%,0%);fill-opacity:1;" d="M 18.210938 50.613281 C 17.402344 51.105469 17.34375 51.292969 17.34375 53.25 C 17.34375 54.796875 17.378906 55.066406 17.578125 55.394531 C 18.070312 56.214844 17.835938 56.191406 25.195312 56.226562 C 28.839844 56.25 31.992188 56.226562 32.203125 56.191406 C 32.988281 56.050781 33.304688 55.277344 32.8125 54.75 L 32.566406 54.492188 L 19.101562 54.492188 L 19.101562 52.148438 L 40.898438 52.148438 L 40.898438 54.492188 L 35.871094 54.492188 L 35.636719 54.796875 C 35.355469 55.160156 35.332031 55.300781 35.53125 55.722656 C 35.742188 56.191406 36.246094 56.273438 38.964844 56.226562 C 41.742188 56.191406 41.953125 56.132812 42.410156 55.3125 C 42.621094 54.925781 42.65625 54.679688 42.65625 53.308594 C 42.65625 51.527344 42.527344 51.117188 41.847656 50.660156 L 41.449219 50.390625 L 30.011719 50.390625 C 19.019531 50.390625 18.5625 50.402344 18.210938 50.613281 Z M 18.210938 50.613281 "/>
</g>
</svg>
