<?xml version="1.0" encoding="UTF-8"?>
<svg xmlns="http://www.w3.org/2000/svg" xmlns:xlink="http://www.w3.org/1999/xlink" width="60px" height="60px" viewBox="0 0 60 60" version="1.1">
<g id="surface1">
<path style=" stroke:none;fill-rule:nonzero;fill:rgb(0%,0%,0%);fill-opacity:1;" d="M 39.667969 2.167969 C 39.375 2.449219 39.375 2.472656 39.375 4.664062 C 39.375 7.546875 39.292969 7.417969 41.238281 7.5 L 42.65625 7.558594 L 38.214844 12 L 33.773438 16.429688 L 29.8125 12.023438 C 27.539062 9.492188 25.722656 7.582031 25.582031 7.546875 C 25.429688 7.5 25.195312 7.5 25.054688 7.546875 C 24.902344 7.582031 22.160156 10.230469 18.960938 13.441406 C 13.523438 18.890625 13.125 19.3125 13.125 19.6875 C 13.125 20.050781 13.289062 20.261719 14.800781 21.761719 C 16.300781 23.261719 16.511719 23.4375 16.875 23.4375 C 17.25 23.4375 17.578125 23.132812 21.28125 19.441406 L 25.277344 15.445312 L 29.003906 19.582031 C 31.042969 21.867188 32.871094 23.871094 33.058594 24.046875 C 33.292969 24.269531 33.527344 24.375 33.773438 24.375 C 34.125 24.375 34.757812 23.777344 40.511719 18.023438 L 46.875 11.660156 L 46.875 13.042969 C 46.875 14.355469 46.886719 14.4375 47.167969 14.707031 C 47.449219 15 47.472656 15 49.6875 15 C 51.902344 15 51.925781 15 52.207031 14.707031 L 52.5 14.425781 L 52.5 2.449219 L 52.207031 2.167969 L 51.925781 1.875 L 39.949219 1.875 Z M 50.625 8.4375 L 50.625 13.125 L 48.75 13.125 L 48.75 11.074219 C 48.75 9.046875 48.75 9.011719 48.457031 8.730469 C 48.269531 8.53125 48.046875 8.4375 47.789062 8.4375 C 47.4375 8.4375 46.828125 9.023438 40.59375 15.246094 L 33.785156 22.054688 L 30.058594 17.917969 C 28.019531 15.632812 26.191406 13.628906 26.003906 13.441406 C 25.769531 13.230469 25.535156 13.125 25.289062 13.125 C 24.949219 13.125 24.492188 13.535156 20.894531 17.132812 L 16.875 21.152344 L 16.148438 20.414062 L 15.410156 19.6875 L 20.34375 14.753906 L 25.289062 9.820312 L 29.25 14.226562 C 31.523438 16.757812 33.339844 18.667969 33.492188 18.703125 C 33.632812 18.75 33.867188 18.75 34.019531 18.703125 C 34.160156 18.667969 36.902344 16.019531 40.113281 12.808594 C 45.421875 7.476562 45.9375 6.9375 45.9375 6.585938 C 45.9375 6.328125 45.84375 6.105469 45.644531 5.917969 C 45.363281 5.625 45.328125 5.625 43.300781 5.625 L 41.25 5.625 L 41.25 3.75 L 50.625 3.75 Z M 50.625 8.4375 "/>
<path style=" stroke:none;fill-rule:nonzero;fill:rgb(0%,0%,0%);fill-opacity:1;" d="M 46.230469 17.167969 L 45.9375 17.449219 L 45.9375 31.875 L 47.8125 31.875 L 47.8125 18.75 L 49.6875 18.75 L 49.6875 31.875 L 51.5625 31.875 L 51.5625 17.449219 L 51.269531 17.167969 C 50.988281 16.875 50.964844 16.875 48.75 16.875 C 46.535156 16.875 46.511719 16.875 46.230469 17.167969 Z M 46.230469 17.167969 "/>
<path style=" stroke:none;fill-rule:nonzero;fill:rgb(0%,0%,0%);fill-opacity:1;" d="M 23.730469 22.792969 L 23.4375 23.074219 L 23.4375 38.4375 L 25.3125 38.4375 L 25.3125 24.375 L 27.1875 24.375 L 27.1875 40.3125 L 29.0625 40.3125 L 29.0625 23.074219 L 28.769531 22.792969 C 28.488281 22.5 28.464844 22.5 26.25 22.5 C 24.035156 22.5 24.011719 22.5 23.730469 22.792969 Z M 23.730469 22.792969 "/>
<path style=" stroke:none;fill-rule:nonzero;fill:rgb(0%,0%,0%);fill-opacity:1;" d="M 38.730469 22.792969 L 38.4375 23.074219 L 38.4375 33.75 L 40.3125 33.75 L 40.3125 24.375 L 42.1875 24.375 L 42.1875 32.8125 L 44.0625 32.8125 L 44.0625 23.074219 L 43.769531 22.792969 C 43.488281 22.5 43.464844 22.5 41.25 22.5 C 39.035156 22.5 39.011719 22.5 38.730469 22.792969 Z M 38.730469 22.792969 "/>
<path style=" stroke:none;fill-rule:nonzero;fill:rgb(0%,0%,0%);fill-opacity:1;" d="M 16.230469 25.605469 L 15.9375 25.886719 L 15.9375 36.5625 L 17.8125 36.5625 L 17.8125 27.1875 L 19.6875 27.1875 L 19.6875 36.5625 L 21.5625 36.5625 L 21.5625 25.886719 L 21.269531 25.605469 C 20.988281 25.3125 20.964844 25.3125 18.75 25.3125 C 16.535156 25.3125 16.511719 25.3125 16.230469 25.605469 Z M 16.230469 25.605469 "/>
<path style=" stroke:none;fill-rule:nonzero;fill:rgb(0%,0%,0%);fill-opacity:1;" d="M 31.230469 26.542969 L 30.9375 26.824219 L 30.9375 40.3125 L 32.8125 40.3125 L 32.8125 28.125 L 34.6875 28.125 L 34.6875 40.3125 L 36.5625 40.3125 L 36.5625 26.824219 L 36.269531 26.542969 C 35.988281 26.25 35.964844 26.25 33.75 26.25 C 31.535156 26.25 31.511719 26.25 31.230469 26.542969 Z M 31.230469 26.542969 "/>
<path style=" stroke:none;fill-rule:nonzero;fill:rgb(0%,0%,0%);fill-opacity:1;" d="M 47.929688 34.054688 C 47.542969 34.230469 47.050781 34.605469 46.699219 34.980469 L 46.113281 35.613281 L 45.46875 35.296875 C 44.894531 35.015625 44.695312 34.980469 43.652344 34.980469 C 42.609375 34.980469 42.410156 35.015625 41.894531 35.296875 C 40.757812 35.882812 40.371094 36.457031 38.964844 39.585938 C 37.710938 42.363281 37.664062 42.433594 37.382812 42.351562 C 37.21875 42.304688 34.324219 42.246094 30.949219 42.222656 L 24.808594 42.175781 L 23.53125 40.957031 C 22.148438 39.632812 21.058594 38.976562 19.628906 38.613281 C 18.140625 38.226562 16.125 38.414062 14.683594 39.082031 L 14.0625 39.363281 L 14.0625 38.71875 C 14.0625 38.191406 14.015625 38.027344 13.769531 37.792969 C 13.5 37.511719 13.429688 37.5 11.894531 37.5 L 10.3125 37.5 L 10.3125 36.855469 C 10.3125 36.316406 10.265625 36.152344 10.019531 35.917969 L 9.738281 35.625 L 1.875 35.625 L 1.875 37.5 L 8.4375 37.5 L 8.4375 56.25 L 1.875 56.25 L 1.875 58.125 L 9.738281 58.125 L 10.019531 57.832031 C 10.289062 57.574219 10.3125 57.457031 10.3125 56.425781 L 10.3125 55.3125 L 11.894531 55.3125 C 13.429688 55.3125 13.5 55.300781 13.769531 55.019531 C 14.050781 54.75 14.0625 54.667969 14.0625 53.308594 L 14.0625 51.878906 L 14.566406 52.359375 C 16.511719 54.140625 19.78125 55.992188 22.675781 56.929688 C 30.175781 59.378906 38.214844 57.972656 44.53125 53.109375 C 45.082031 52.6875 48.152344 49.722656 51.363281 46.535156 C 56.53125 41.390625 57.246094 40.640625 57.574219 39.972656 C 58.054688 39 58.078125 37.980469 57.632812 37.019531 C 57.210938 36.105469 56.800781 35.683594 55.933594 35.25 C 54.984375 34.78125 53.941406 34.734375 53.074219 35.121094 L 52.546875 35.355469 L 52.171875 34.910156 C 51.972656 34.675781 51.480469 34.3125 51.082031 34.113281 C 50.097656 33.621094 48.902344 33.597656 47.929688 34.054688 Z M 50.730469 36.164062 L 51.117188 36.585938 L 47.039062 40.6875 C 44.789062 42.9375 42.539062 45.09375 42.035156 45.480469 C 41.050781 46.21875 40.265625 46.6875 40.5 46.394531 C 40.570312 46.300781 42.257812 44.039062 44.238281 41.367188 C 46.21875 38.695312 47.988281 36.351562 48.164062 36.175781 C 48.890625 35.414062 50.015625 35.414062 50.730469 36.164062 Z M 55.300781 37.019531 C 55.828125 37.394531 56.039062 37.792969 56.039062 38.402344 C 56.039062 38.730469 55.992188 39.09375 55.921875 39.210938 C 55.851562 39.328125 53.144531 42.082031 49.898438 45.304688 C 46.113281 49.078125 43.652344 51.445312 43.007812 51.914062 C 34.382812 58.253906 22.78125 57.5625 15.046875 50.25 L 14.0625 49.3125 L 14.0625 41.636719 L 14.507812 41.332031 C 16.242188 40.125 18.375 39.949219 20.273438 40.851562 C 20.988281 41.191406 21.386719 41.496094 22.535156 42.632812 L 23.917969 44.003906 L 30.398438 44.0625 L 36.867188 44.121094 L 37.347656 44.4375 C 38.074219 44.917969 38.378906 45.492188 38.378906 46.40625 C 38.378906 47.320312 38.074219 47.894531 37.347656 48.375 L 36.867188 48.691406 L 24.375 48.761719 L 24.375 50.636719 L 30.738281 50.601562 L 37.089844 50.566406 L 37.792969 50.238281 C 38.179688 50.050781 38.625 49.78125 38.789062 49.628906 C 38.953125 49.464844 39.5625 49.113281 40.136719 48.832031 C 42.667969 47.589844 43.265625 47.097656 48.761719 41.625 C 53.765625 36.65625 53.789062 36.632812 54.667969 36.761719 C 54.867188 36.796875 55.148438 36.914062 55.300781 37.019531 Z M 44.660156 36.972656 C 44.882812 37.089844 44.976562 37.207031 44.917969 37.300781 C 44.789062 37.511719 39.960938 43.980469 39.84375 44.109375 C 39.738281 44.214844 39.269531 43.769531 39.257812 43.570312 C 39.257812 43.371094 41.765625 37.886719 42.023438 37.546875 C 42.164062 37.347656 42.46875 37.101562 42.679688 36.996094 C 43.171875 36.75 44.203125 36.738281 44.660156 36.972656 Z M 12.1875 46.40625 L 12.1875 53.4375 L 10.3125 53.4375 L 10.3125 39.375 L 12.1875 39.375 Z M 12.1875 46.40625 "/>
</g>
</svg>
